<svg width="16" height="19" viewBox="0 0 16 19" fill="none" xmlns="http://www.w3.org/2000/svg">
<g id="instagram logo" clip-path="url(#clip0_2_10974)">
<path id="Vector" d="M8.00368 5.62846C5.73225 5.62846 3.90011 7.43198 3.90011 9.66792C3.90011 11.9039 5.73225 13.7074 8.00368 13.7074C10.2751 13.7074 12.1073 11.9039 12.1073 9.66792C12.1073 7.43198 10.2751 5.62846 8.00368 5.62846ZM8.00368 12.2941C6.53583 12.2941 5.33583 11.1164 5.33583 9.66792C5.33583 8.21948 6.53225 7.04175 8.00368 7.04175C9.47511 7.04175 10.6715 8.21948 10.6715 9.66792C10.6715 11.1164 9.47154 12.2941 8.00368 12.2941ZM13.2322 5.46323C13.2322 5.98706 12.8037 6.40542 12.2751 6.40542C11.743 6.40542 11.318 5.98354 11.318 5.46323C11.318 4.94292 11.7465 4.52104 12.2751 4.52104C12.8037 4.52104 13.2322 4.94292 13.2322 5.46323ZM15.9501 6.41948C15.8894 5.15737 15.5965 4.0394 14.6572 3.11831C13.7215 2.19722 12.5858 1.90894 11.3037 1.84565C9.98225 1.77183 6.02154 1.77183 4.70011 1.84565C3.42154 1.90542 2.28583 2.1937 1.34654 3.11479C0.407258 4.03589 0.117972 5.15386 0.0536865 6.41596C-0.0213135 7.71674 -0.0213135 11.6156 0.0536865 12.9164C0.114401 14.1785 0.407258 15.2964 1.34654 16.2175C2.28583 17.1386 3.41797 17.4269 4.70011 17.4902C6.02154 17.564 9.98225 17.564 11.3037 17.4902C12.5858 17.4304 13.7215 17.1421 14.6572 16.2175C15.593 15.2964 15.8858 14.1785 15.9501 12.9164C16.0251 11.6156 16.0251 7.72026 15.9501 6.41948ZM14.243 14.3121C13.9644 15.0011 13.4251 15.532 12.7215 15.8097C11.668 16.221 9.16797 16.1261 8.00368 16.1261C6.8394 16.1261 4.33583 16.2175 3.28583 15.8097C2.58583 15.5355 2.04654 15.0046 1.7644 14.3121C1.34654 13.2749 1.44297 10.814 1.44297 9.66792C1.44297 8.52182 1.35011 6.05737 1.7644 5.02378C2.04297 4.33472 2.58226 3.80386 3.28583 3.52612C4.3394 3.11479 6.8394 3.20972 8.00368 3.20972C9.16797 3.20972 11.6715 3.11831 12.7215 3.52612C13.4215 3.80034 13.9608 4.3312 14.243 5.02378C14.6608 6.06089 14.5644 8.52182 14.5644 9.66792C14.5644 10.814 14.6608 13.2785 14.243 14.3121Z" fill="white"/>
</g>
<defs>
<clipPath id="clip0_2_10974">
<rect width="16" height="18" fill="white" transform="translate(0.00012207 0.671387)"/>
</clipPath>
</defs>
</svg>
