<svg width="16" height="16" viewBox="0 0 16 16" fill="none" xmlns="http://www.w3.org/2000/svg">
<g id="linkedin logo" clip-path="url(#clip0_2_10978)">
<path id="Vector" d="M3.63281 15.6714V5.55092H0.202508V15.6714H3.63281ZM1.9181 4.16831C3.11431 4.16831 3.85889 3.39117 3.85889 2.42001C3.8366 1.42695 3.11436 0.671387 1.9408 0.671387C0.767434 0.671387 0.00012207 1.42697 0.00012207 2.42001C0.00012207 3.39122 0.74452 4.16831 1.89571 4.16831H1.918H1.9181ZM5.53147 15.6714H8.96177V10.0196C8.96177 9.71715 8.98406 9.41499 9.07465 9.19877C9.32263 8.59443 9.88705 7.96851 10.8346 7.96851C12.0759 7.96851 12.5725 8.89659 12.5725 10.2571V15.6713H16.0026V9.86834C16.0026 6.75972 14.3103 5.31332 12.0533 5.31332C10.2028 5.31332 9.39033 6.32765 8.93895 7.0185H8.96185V5.55071H5.53155C5.57657 6.50036 5.53155 15.6712 5.53155 15.6712L5.53147 15.6714Z" fill="white"/>
</g>
<defs>
<clipPath id="clip0_2_10978">
<rect width="16" height="15" fill="white" transform="translate(0.00012207 0.671387)"/>
</clipPath>
</defs>
</svg>
