<svg width="18" height="15" viewBox="0 0 18 15" fill="none" xmlns="http://www.w3.org/2000/svg">
<g id="Twitter logo" clip-path="url(#clip0_2_10982)">
<path id="Vector" d="M17.9998 2.37628C17.3258 2.66076 16.6109 2.84748 15.8788 2.93026C16.6413 2.49485 17.2268 1.80537 17.5025 0.983854C16.7776 1.39366 15.9845 1.6824 15.1575 1.83759C14.4839 1.15386 13.5242 0.726562 12.4619 0.726562C10.4225 0.726562 8.76893 2.3018 8.76893 4.24465C8.76893 4.52043 8.80162 4.78891 8.86455 5.04646C5.79541 4.8997 3.07432 3.4991 1.25287 1.37056C0.935059 1.89017 0.752949 2.49458 0.752949 3.13925C0.752949 4.35986 1.40496 5.43666 2.3958 6.06759C1.80936 6.0501 1.23582 5.8992 0.723067 5.6275C0.722856 5.64223 0.722856 5.65697 0.722856 5.67178C0.722856 7.37636 1.99579 8.79833 3.68512 9.12154C3.14131 9.26243 2.5709 9.28305 2.01745 9.18182C2.48735 10.5795 3.8512 11.5967 5.46712 11.6251C4.20325 12.5687 2.61089 13.1312 0.880777 13.1312C0.582653 13.1312 0.288746 13.1145 -0.000167847 13.082C1.63411 14.0802 3.57522 14.6627 5.66069 14.6627C12.4534 14.6627 16.1678 9.30173 16.1678 4.65266C16.1678 4.50006 16.1643 4.34834 16.1571 4.19749C16.8801 3.69957 17.5041 3.08286 17.9998 2.37628Z" fill="white"/>
</g>
<defs>
<clipPath id="clip0_2_10982">
<rect width="18" height="14" fill="white" transform="translate(-0.000167847 0.671387)"/>
</clipPath>
</defs>
</svg>
