<svg width="429" height="135" viewBox="0 0 429 135" fill="none" xmlns="http://www.w3.org/2000/svg">
<path opacity="0.5" d="M41.796 101.171C35.652 101.171 30.5 100.275 26.34 98.4829C22.244 96.6909 19.14 94.3549 17.028 91.4749C14.916 88.5949 13.796 85.5229 13.668 82.2589C13.668 81.7469 13.86 81.2989 14.244 80.9149C14.628 80.4669 15.108 80.2429 15.684 80.2429H25.956C26.788 80.2429 27.428 80.4349 27.876 80.8189C28.324 81.1389 28.74 81.5549 29.124 82.0669C29.572 83.1549 30.276 84.2109 31.236 85.2349C32.26 86.2589 33.636 87.1229 35.364 87.8269C37.092 88.4669 39.236 88.7869 41.796 88.7869C45.956 88.7869 49.06 88.1149 51.108 86.7709C53.22 85.4269 54.276 83.6029 54.276 81.2989C54.276 79.6349 53.7 78.2909 52.548 77.2669C51.46 76.2429 49.7 75.3149 47.268 74.4829C44.9 73.6509 41.732 72.7549 37.764 71.7949C32.964 70.7709 28.868 69.4589 25.476 67.8589C22.148 66.1949 19.62 64.0829 17.892 61.5229C16.228 58.8989 15.396 55.6669 15.396 51.8269C15.396 47.9869 16.452 44.5949 18.564 41.6509C20.676 38.6429 23.652 36.3069 27.492 34.6429C31.332 32.9149 35.908 32.0509 41.22 32.0509C45.508 32.0509 49.284 32.6269 52.548 33.7789C55.876 34.9309 58.628 36.4349 60.804 38.2909C63.044 40.1469 64.74 42.1309 65.892 44.2429C67.044 46.3549 67.652 48.4029 67.716 50.3869C67.716 50.8989 67.524 51.3789 67.14 51.8269C66.756 52.2109 66.276 52.4029 65.7 52.4029H54.948C54.308 52.4029 53.732 52.2749 53.22 52.0189C52.708 51.7629 52.292 51.3149 51.972 50.6749C51.588 49.0109 50.436 47.5709 48.516 46.3549C46.66 45.0749 44.228 44.4349 41.22 44.4349C38.084 44.4349 35.588 45.0109 33.732 46.1629C31.94 47.3149 31.044 49.0749 31.044 51.4429C31.044 52.9789 31.492 54.2909 32.388 55.3789C33.348 56.4029 34.916 57.3309 37.092 58.1629C39.332 58.9309 42.276 59.7949 45.924 60.7549C51.556 61.9069 56.132 63.2829 59.652 64.8829C63.172 66.4829 65.764 68.5629 67.428 71.1229C69.092 73.6189 69.924 76.7869 69.924 80.6269C69.924 84.9149 68.708 88.5949 66.276 91.6669C63.908 94.7389 60.612 97.1069 56.388 98.7709C52.228 100.371 47.364 101.171 41.796 101.171ZM101.445 101.171C94.085 101.171 88.229 99.1229 83.877 95.0269C79.589 90.9309 77.317 84.9789 77.061 77.1709C77.061 76.6589 77.061 75.9869 77.061 75.1549C77.061 74.2589 77.061 73.5549 77.061 73.0429C77.317 68.1149 78.437 63.8909 80.421 60.3709C82.405 56.7869 85.189 54.0669 88.773 52.2109C92.357 50.2909 96.549 49.3309 101.349 49.3309C106.725 49.3309 111.205 50.4509 114.789 52.6909C118.437 54.8669 121.157 57.8749 122.949 61.7149C124.805 65.4909 125.733 69.8429 125.733 74.7709V76.9789C125.733 77.6189 125.477 78.1629 124.965 78.6109C124.517 79.0589 123.973 79.2829 123.333 79.2829H91.941C91.941 79.3469 91.941 79.4749 91.941 79.6669C91.941 79.7949 91.941 79.9229 91.941 80.0509C92.005 82.0989 92.389 83.9869 93.093 85.7149C93.861 87.3789 94.917 88.7229 96.261 89.7469C97.669 90.7709 99.333 91.2829 101.253 91.2829C102.853 91.2829 104.165 91.0589 105.189 90.6109C106.213 90.1629 107.045 89.6189 107.685 88.9789C108.389 88.3389 108.901 87.7949 109.221 87.3469C109.797 86.7069 110.245 86.3229 110.565 86.1949C110.949 86.0029 111.525 85.9069 112.293 85.9069H122.277C122.917 85.9069 123.429 86.0989 123.813 86.4829C124.261 86.8029 124.453 87.2829 124.389 87.9229C124.325 88.9469 123.781 90.2269 122.757 91.7629C121.797 93.2349 120.357 94.7069 118.437 96.1789C116.517 97.5869 114.117 98.7709 111.237 99.7309C108.421 100.691 105.157 101.171 101.445 101.171ZM91.941 70.5469H110.757V70.3549C110.757 68.0509 110.373 66.0669 109.605 64.4029C108.901 62.6749 107.845 61.3309 106.437 60.3709C105.029 59.4109 103.333 58.9309 101.349 58.9309C99.365 58.9309 97.669 59.4109 96.261 60.3709C94.853 61.3309 93.765 62.6749 92.997 64.4029C92.293 66.0669 91.941 68.0509 91.941 70.3549V70.5469ZM137.633 100.211C136.993 100.211 136.449 99.9869 136.001 99.5389C135.553 99.0909 135.329 98.5149 135.329 97.8109V52.6909C135.329 52.0509 135.553 51.5069 136.001 51.0589C136.449 50.5469 136.993 50.2909 137.633 50.2909H147.041C147.681 50.2909 148.225 50.5469 148.673 51.0589C149.185 51.5069 149.441 52.0509 149.441 52.6909V56.5309C151.041 54.5469 152.993 53.0109 155.297 51.9229C157.665 50.8349 160.385 50.2909 163.457 50.2909H167.585C168.225 50.2909 168.769 50.5149 169.217 50.9629C169.665 51.4109 169.889 51.9869 169.889 52.6909V60.9469C169.889 61.6509 169.665 62.2269 169.217 62.6749C168.769 63.1229 168.225 63.3469 167.585 63.3469H159.137C156.321 63.3469 154.113 64.1469 152.513 65.7469C150.913 67.2829 150.113 69.4909 150.113 72.3709V97.8109C150.113 98.5149 149.889 99.0909 149.441 99.5389C148.993 99.9869 148.417 100.211 147.713 100.211H137.633ZM194.712 100.211C193.752 100.211 193.016 99.9869 192.504 99.5389C192.056 99.0269 191.672 98.4509 191.352 97.8109L173.304 53.2669C173.176 53.0109 173.112 52.7229 173.112 52.4029C173.112 51.8269 173.304 51.3469 173.688 50.9629C174.136 50.5149 174.648 50.2909 175.224 50.2909H184.536C185.368 50.2909 185.976 50.5149 186.36 50.9629C186.808 51.4109 187.096 51.8269 187.224 52.2109L199.032 83.8909L210.84 52.2109C211.032 51.8269 211.32 51.4109 211.704 50.9629C212.152 50.5149 212.76 50.2909 213.528 50.2909H222.84C223.416 50.2909 223.896 50.5149 224.28 50.9629C224.728 51.3469 224.952 51.8269 224.952 52.4029C224.952 52.7229 224.92 53.0109 224.856 53.2669L206.712 97.8109C206.456 98.4509 206.072 99.0269 205.56 99.5389C205.048 99.9869 204.312 100.211 203.352 100.211H194.712ZM235.415 100.211C234.775 100.211 234.231 99.9869 233.783 99.5389C233.335 99.0909 233.111 98.5149 233.111 97.8109V52.6909C233.111 51.9869 233.335 51.4109 233.783 50.9629C234.231 50.5149 234.775 50.2909 235.415 50.2909H245.015C245.719 50.2909 246.295 50.5149 246.743 50.9629C247.191 51.4109 247.415 51.9869 247.415 52.6909V97.8109C247.415 98.5149 247.191 99.0909 246.743 99.5389C246.295 99.9869 245.719 100.211 245.015 100.211H235.415ZM235.127 42.6109C234.487 42.6109 233.943 42.3869 233.495 41.9389C233.047 41.4909 232.823 40.9149 232.823 40.2109V32.5309C232.823 31.8269 233.047 31.2509 233.495 30.8029C233.943 30.2909 234.487 30.0349 235.127 30.0349H245.207C245.911 30.0349 246.487 30.2909 246.935 30.8029C247.447 31.2509 247.703 31.8269 247.703 32.5309V40.2109C247.703 40.9149 247.447 41.4909 246.935 41.9389C246.487 42.3869 245.911 42.6109 245.207 42.6109H235.127ZM282.005 101.171C277.333 101.171 273.205 100.307 269.621 98.5789C266.101 96.8509 263.317 94.3549 261.269 91.0909C259.221 87.7629 258.101 83.7949 257.909 79.1869C257.845 78.1629 257.813 76.8829 257.813 75.3469C257.813 73.7469 257.845 72.4349 257.909 71.4109C258.101 66.7389 259.189 62.7709 261.173 59.5069C263.221 56.1789 266.037 53.6509 269.621 51.9229C273.205 50.1949 277.333 49.3309 282.005 49.3309C286.293 49.3309 289.941 49.9389 292.949 51.1549C295.957 52.3069 298.421 53.7789 300.341 55.5709C302.261 57.3629 303.669 59.2509 304.565 61.2349C305.525 63.1549 306.037 64.8509 306.101 66.3229C306.165 66.9629 305.941 67.5389 305.429 68.0509C304.981 68.4989 304.437 68.7229 303.797 68.7229H293.525C292.885 68.7229 292.373 68.5629 291.989 68.2429C291.669 67.8589 291.349 67.3469 291.029 66.7069C290.133 64.4669 288.981 62.8669 287.573 61.9069C286.165 60.9469 284.405 60.4669 282.293 60.4669C279.413 60.4669 277.141 61.3949 275.477 63.2509C273.813 65.1069 272.917 67.9869 272.789 71.8909C272.725 74.3869 272.725 76.6589 272.789 78.7069C272.981 82.6749 273.877 85.5549 275.477 87.3469C277.141 89.1389 279.413 90.0349 282.293 90.0349C284.533 90.0349 286.325 89.5549 287.669 88.5949C289.013 87.6349 290.133 86.0349 291.029 83.7949C291.285 83.1549 291.605 82.6749 291.989 82.3549C292.373 81.9709 292.885 81.7789 293.525 81.7789H303.797C304.437 81.7789 304.981 82.0349 305.429 82.5469C305.941 82.9949 306.165 83.5389 306.101 84.1789C306.037 85.2669 305.717 86.5469 305.141 88.0189C304.629 89.4909 303.765 90.9949 302.549 92.5309C301.397 94.0669 299.893 95.5069 298.037 96.8509C296.181 98.1309 293.909 99.1869 291.221 100.019C288.597 100.787 285.525 101.171 282.005 101.171ZM337.789 101.171C330.429 101.171 324.573 99.1229 320.221 95.0269C315.933 90.9309 313.661 84.9789 313.405 77.1709C313.405 76.6589 313.405 75.9869 313.405 75.1549C313.405 74.2589 313.405 73.5549 313.405 73.0429C313.661 68.1149 314.781 63.8909 316.765 60.3709C318.749 56.7869 321.533 54.0669 325.117 52.2109C328.701 50.2909 332.893 49.3309 337.693 49.3309C343.069 49.3309 347.549 50.4509 351.133 52.6909C354.781 54.8669 357.501 57.8749 359.293 61.7149C361.149 65.4909 362.077 69.8429 362.077 74.7709V76.9789C362.077 77.6189 361.821 78.1629 361.309 78.6109C360.861 79.0589 360.317 79.2829 359.677 79.2829H328.285C328.285 79.3469 328.285 79.4749 328.285 79.6669C328.285 79.7949 328.285 79.9229 328.285 80.0509C328.349 82.0989 328.733 83.9869 329.437 85.7149C330.205 87.3789 331.261 88.7229 332.605 89.7469C334.013 90.7709 335.677 91.2829 337.597 91.2829C339.197 91.2829 340.509 91.0589 341.533 90.6109C342.557 90.1629 343.389 89.6189 344.029 88.9789C344.733 88.3389 345.245 87.7949 345.565 87.3469C346.141 86.7069 346.589 86.3229 346.909 86.1949C347.293 86.0029 347.869 85.9069 348.637 85.9069H358.621C359.261 85.9069 359.773 86.0989 360.157 86.4829C360.605 86.8029 360.797 87.2829 360.733 87.9229C360.669 88.9469 360.125 90.2269 359.101 91.7629C358.141 93.2349 356.701 94.7069 354.781 96.1789C352.861 97.5869 350.461 98.7709 347.581 99.7309C344.765 100.691 341.501 101.171 337.789 101.171ZM328.285 70.5469H347.101V70.3549C347.101 68.0509 346.717 66.0669 345.949 64.4029C345.245 62.6749 344.189 61.3309 342.781 60.3709C341.373 59.4109 339.677 58.9309 337.693 58.9309C335.709 58.9309 334.013 59.4109 332.605 60.3709C331.197 61.3309 330.109 62.6749 329.341 64.4029C328.637 66.0669 328.285 68.0509 328.285 70.3549V70.5469ZM391.353 101.171C387.385 101.171 383.961 100.723 381.081 99.8269C378.265 98.8669 375.961 97.7149 374.169 96.3709C372.441 95.0269 371.129 93.6829 370.233 92.3389C369.401 90.9309 368.953 89.7469 368.889 88.7869C368.825 88.0829 369.049 87.5069 369.561 87.0589C370.073 86.6109 370.585 86.3869 371.097 86.3869H380.409C380.601 86.3869 380.793 86.4189 380.985 86.4829C381.177 86.5469 381.369 86.7069 381.561 86.9629C382.393 87.5389 383.257 88.2109 384.153 88.9789C385.049 89.6829 386.073 90.2909 387.225 90.8029C388.441 91.3149 389.945 91.5709 391.737 91.5709C393.849 91.5709 395.641 91.1549 397.113 90.3229C398.585 89.4269 399.321 88.1789 399.321 86.5789C399.321 85.4269 398.969 84.4669 398.265 83.6989C397.625 82.9309 396.377 82.2269 394.521 81.5869C392.665 80.9469 389.913 80.2429 386.265 79.4749C382.809 78.7069 379.865 77.6829 377.433 76.4029C375.001 75.1229 373.177 73.5229 371.961 71.6029C370.745 69.6189 370.137 67.2509 370.137 64.4989C370.137 62.0029 370.905 59.6029 372.441 57.2989C374.041 54.9949 376.377 53.1069 379.449 51.6349C382.521 50.0989 386.361 49.3309 390.969 49.3309C394.489 49.3309 397.561 49.7789 400.185 50.6749C402.873 51.5069 405.113 52.5949 406.905 53.9389C408.697 55.2189 410.041 56.5629 410.937 57.9709C411.897 59.3149 412.409 60.4989 412.473 61.5229C412.537 62.1629 412.345 62.7069 411.897 63.1549C411.449 63.6029 410.937 63.8269 410.361 63.8269H401.817C401.497 63.8269 401.209 63.7949 400.953 63.7309C400.697 63.6029 400.473 63.4429 400.281 63.2509C399.513 62.7389 398.713 62.1629 397.881 61.5229C397.113 60.8189 396.185 60.2109 395.097 59.6989C394.009 59.1869 392.601 58.9309 390.873 58.9309C388.761 58.9309 387.129 59.4109 385.977 60.3709C384.889 61.2669 384.345 62.4189 384.345 63.8269C384.345 64.7229 384.633 65.5549 385.209 66.3229C385.785 67.0909 386.969 67.7949 388.761 68.4349C390.553 69.0749 393.273 69.7469 396.921 70.4509C401.273 71.2189 404.729 72.3709 407.289 73.9069C409.849 75.4429 411.673 77.2349 412.761 79.2829C413.913 81.2669 414.489 83.4109 414.489 85.7149C414.489 88.7229 413.593 91.4109 411.801 93.7789C410.009 96.0829 407.385 97.9069 403.929 99.2509C400.537 100.531 396.345 101.171 391.353 101.171Z" fill="#E5E5E5"/>
<path d="M30.388 100.691C27.188 100.691 24.532 100.243 22.42 99.3469C20.308 98.4189 18.708 97.2189 17.62 95.7469C16.532 94.2749 15.956 92.7069 15.892 91.0429C15.892 90.7869 15.988 90.5629 16.18 90.3709C16.404 90.1469 16.66 90.0349 16.948 90.0349H22.996C23.444 90.0349 23.78 90.1149 24.004 90.2749C24.26 90.4349 24.484 90.6429 24.676 90.8989C24.932 91.3789 25.284 91.8429 25.732 92.2909C26.212 92.7389 26.82 93.1069 27.556 93.3949C28.324 93.6509 29.268 93.7789 30.388 93.7789C32.244 93.7789 33.636 93.4909 34.564 92.9149C35.524 92.3389 36.004 91.5549 36.004 90.5629C36.004 89.8589 35.748 89.2829 35.236 88.8349C34.724 88.3549 33.892 87.9389 32.74 87.5869C31.62 87.2029 30.116 86.8189 28.228 86.4349C25.796 85.9229 23.716 85.2669 21.988 84.4669C20.292 83.6349 18.996 82.5629 18.1 81.2509C17.204 79.9069 16.756 78.2429 16.756 76.2589C16.756 74.3069 17.3 72.5629 18.388 71.0269C19.508 69.4909 21.06 68.2909 23.044 67.4269C25.028 66.5629 27.38 66.1309 30.1 66.1309C32.308 66.1309 34.244 66.4189 35.908 66.9949C37.604 67.5709 39.028 68.3389 40.18 69.2989C41.332 70.2589 42.196 71.2829 42.772 72.3709C43.38 73.4269 43.7 74.4669 43.732 75.4909C43.732 75.7469 43.636 75.9869 43.444 76.2109C43.252 76.4029 43.012 76.4989 42.724 76.4989H36.388C36.036 76.4989 35.732 76.4349 35.476 76.3069C35.22 76.1789 34.996 75.9709 34.804 75.6829C34.612 74.9789 34.1 74.3709 33.268 73.8589C32.468 73.3149 31.412 73.0429 30.1 73.0429C28.692 73.0429 27.588 73.2989 26.788 73.8109C26.02 74.2909 25.636 75.0429 25.636 76.0669C25.636 76.7069 25.844 77.2669 26.26 77.7469C26.708 78.2269 27.428 78.6429 28.42 78.9949C29.444 79.3469 30.836 79.7149 32.596 80.0989C35.508 80.6429 37.86 81.3309 39.652 82.1629C41.444 82.9629 42.756 84.0189 43.588 85.3309C44.42 86.6109 44.836 88.2269 44.836 90.1789C44.836 92.3549 44.212 94.2429 42.964 95.8429C41.748 97.4109 40.052 98.6109 37.876 99.4429C35.7 100.275 33.204 100.691 30.388 100.691ZM60.6333 100.691C56.8573 100.691 53.8493 99.6669 51.6093 97.6189C49.3693 95.5709 48.2013 92.5309 48.1053 88.4989C48.1053 88.2749 48.1053 87.9869 48.1053 87.6349C48.1053 87.2829 48.1053 87.0109 48.1053 86.8189C48.2013 84.2909 48.7613 82.1309 49.7853 80.3389C50.8413 78.5149 52.2813 77.1389 54.1053 76.2109C55.9613 75.2509 58.1213 74.7709 60.5853 74.7709C63.4013 74.7709 65.7213 75.3309 67.5453 76.4509C69.4013 77.5709 70.7933 79.0909 71.7213 81.0109C72.6493 82.9309 73.1133 85.1229 73.1133 87.5869V88.7389C73.1133 89.0909 72.9853 89.3789 72.7292 89.6029C72.5053 89.8269 72.2333 89.9389 71.9133 89.9389H56.5533C56.5533 89.9709 56.5533 90.0189 56.5533 90.0829C56.5533 90.1469 56.5533 90.2109 56.5533 90.2749C56.5853 91.2029 56.7453 92.0509 57.0333 92.8189C57.3213 93.5869 57.7693 94.1949 58.3773 94.6429C58.9853 95.0909 59.7213 95.3149 60.5853 95.3149C61.2253 95.3149 61.7533 95.2189 62.1693 95.0269C62.6173 94.8029 62.9853 94.5629 63.2733 94.3069C63.5613 94.0189 63.7853 93.7789 63.9453 93.5869C64.2333 93.2669 64.4573 93.0749 64.6173 93.0109C64.8093 92.9149 65.0973 92.8669 65.4813 92.8669H71.4333C71.7533 92.8669 72.0093 92.9629 72.2013 93.1549C72.4253 93.3149 72.5213 93.5549 72.4893 93.8749C72.4573 94.4189 72.1853 95.0749 71.6733 95.8429C71.1613 96.6109 70.4093 97.3789 69.4173 98.1469C68.4573 98.8829 67.2413 99.4909 65.7693 99.9709C64.2973 100.451 62.5853 100.691 60.6333 100.691ZM56.5533 85.1869H64.6653V85.0909C64.6653 84.0669 64.5053 83.1709 64.1853 82.4029C63.8973 81.6349 63.4333 81.0429 62.7933 80.6269C62.1853 80.2109 61.4493 80.0029 60.5853 80.0029C59.7213 80.0029 58.9853 80.2109 58.3773 80.6269C57.8013 81.0429 57.3533 81.6349 57.0333 82.4029C56.7133 83.1709 56.5533 84.0669 56.5533 85.0909V85.1869ZM78.8133 100.211C78.4613 100.211 78.1733 100.099 77.9492 99.8749C77.7253 99.6509 77.6133 99.3629 77.6133 99.0109V76.4509C77.6133 76.1309 77.7253 75.8589 77.9492 75.6349C78.1733 75.3789 78.4613 75.2509 78.8133 75.2509H84.3333C84.6853 75.2509 84.9733 75.3789 85.1973 75.6349C85.4213 75.8589 85.5333 76.1309 85.5333 76.4509V78.3709C86.3973 77.3789 87.4213 76.6109 88.6053 76.0669C89.8213 75.5229 91.1813 75.2509 92.6853 75.2509H94.7973C95.1173 75.2509 95.3893 75.3629 95.6133 75.5869C95.8693 75.8109 95.9973 76.0989 95.9973 76.4509V81.3949C95.9973 81.7149 95.8693 82.0029 95.6133 82.2589C95.3893 82.4829 95.1173 82.5949 94.7973 82.5949H90.1413C88.8293 82.5949 87.8053 82.9629 87.0693 83.6989C86.3653 84.4029 86.0133 85.4109 86.0133 86.7229V99.0109C86.0133 99.3629 85.8853 99.6509 85.6293 99.8749C85.4053 100.099 85.1173 100.211 84.7653 100.211H78.8133ZM108.29 100.211C107.81 100.211 107.458 100.099 107.234 99.8749C107.01 99.6189 106.818 99.3309 106.658 99.0109L97.5861 76.7389C97.5221 76.6109 97.4901 76.4669 97.4901 76.3069C97.4901 76.0189 97.5861 75.7789 97.7781 75.5869C98.0021 75.3629 98.2741 75.2509 98.5941 75.2509H104.018C104.434 75.2509 104.754 75.3629 104.978 75.5869C105.202 75.8109 105.346 76.0349 105.41 76.2589L110.834 90.9949L116.306 76.2589C116.37 76.0349 116.514 75.8109 116.738 75.5869C116.962 75.3629 117.282 75.2509 117.698 75.2509H123.122C123.41 75.2509 123.666 75.3629 123.89 75.5869C124.114 75.7789 124.226 76.0189 124.226 76.3069C124.226 76.4669 124.194 76.6109 124.13 76.7389L115.058 99.0109C114.93 99.3309 114.738 99.6189 114.482 99.8749C114.258 100.099 113.89 100.211 113.378 100.211H108.29ZM129.157 100.211C128.805 100.211 128.517 100.099 128.293 99.8749C128.069 99.6509 127.957 99.3629 127.957 99.0109V76.4509C127.957 76.0989 128.069 75.8109 128.293 75.5869C128.517 75.3629 128.805 75.2509 129.157 75.2509H134.821C135.141 75.2509 135.413 75.3629 135.637 75.5869C135.893 75.8109 136.021 76.0989 136.021 76.4509V99.0109C136.021 99.3629 135.893 99.6509 135.637 99.8749C135.413 100.099 135.141 100.211 134.821 100.211H129.157ZM129.109 71.6509C128.757 71.6509 128.469 71.5389 128.245 71.3149C128.021 71.0909 127.909 70.8029 127.909 70.4509V66.1789C127.909 65.8269 128.021 65.5389 128.245 65.3149C128.469 65.0589 128.757 64.9309 129.109 64.9309H134.821C135.173 64.9309 135.461 65.0589 135.685 65.3149C135.941 65.5389 136.069 65.8269 136.069 66.1789V70.4509C136.069 70.8029 135.941 71.0909 135.685 71.3149C135.461 71.5389 135.173 71.6509 134.821 71.6509H129.109ZM153.351 100.691C150.983 100.691 148.887 100.259 147.063 99.3949C145.239 98.5309 143.783 97.2829 142.695 95.6509C141.639 93.9869 141.063 92.0029 140.967 89.6989C140.935 89.1869 140.919 88.5469 140.919 87.7789C140.919 86.9789 140.935 86.3229 140.967 85.8109C141.063 83.4749 141.639 81.4909 142.695 79.8589C143.751 78.1949 145.191 76.9309 147.015 76.0669C148.871 75.2029 150.983 74.7709 153.351 74.7709C155.559 74.7709 157.447 75.0909 159.015 75.7309C160.583 76.3389 161.863 77.1069 162.855 78.0349C163.847 78.9629 164.583 79.9229 165.063 80.9149C165.575 81.8749 165.847 82.7229 165.879 83.4589C165.911 83.7789 165.799 84.0669 165.543 84.3229C165.287 84.5469 164.999 84.6589 164.679 84.6589H158.583C158.231 84.6589 157.959 84.5789 157.767 84.4189C157.575 84.2589 157.399 84.0189 157.239 83.6989C156.855 82.7069 156.359 82.0029 155.751 81.5869C155.175 81.1709 154.423 80.9629 153.495 80.9629C152.215 80.9629 151.223 81.3789 150.519 82.2109C149.847 83.0429 149.479 84.3229 149.415 86.0509C149.383 87.3309 149.383 88.4669 149.415 89.4589C149.479 91.2189 149.847 92.4989 150.519 93.2989C151.223 94.0989 152.215 94.4989 153.495 94.4989C154.487 94.4989 155.271 94.2909 155.847 93.8749C156.423 93.4589 156.887 92.7549 157.239 91.7629C157.399 91.4429 157.575 91.2029 157.767 91.0429C157.959 90.8829 158.231 90.8029 158.583 90.8029H164.679C164.999 90.8029 165.287 90.9309 165.543 91.1869C165.799 91.4109 165.911 91.6829 165.879 92.0029C165.847 92.5469 165.687 93.1869 165.399 93.9229C165.111 94.6269 164.663 95.3789 164.055 96.1789C163.447 96.9789 162.647 97.7309 161.655 98.4349C160.695 99.1069 159.527 99.6509 158.151 100.067C156.775 100.483 155.175 100.691 153.351 100.691ZM181.711 100.691C177.935 100.691 174.927 99.6669 172.687 97.6189C170.447 95.5709 169.279 92.5309 169.183 88.4989C169.183 88.2749 169.183 87.9869 169.183 87.6349C169.183 87.2829 169.183 87.0109 169.183 86.8189C169.279 84.2909 169.839 82.1309 170.863 80.3389C171.919 78.5149 173.359 77.1389 175.183 76.2109C177.039 75.2509 179.199 74.7709 181.663 74.7709C184.479 74.7709 186.799 75.3309 188.623 76.4509C190.479 77.5709 191.871 79.0909 192.799 81.0109C193.727 82.9309 194.191 85.1229 194.191 87.5869V88.7389C194.191 89.0909 194.063 89.3789 193.807 89.6029C193.583 89.8269 193.311 89.9389 192.991 89.9389H177.631C177.631 89.9709 177.631 90.0189 177.631 90.0829C177.631 90.1469 177.631 90.2109 177.631 90.2749C177.663 91.2029 177.823 92.0509 178.111 92.8189C178.399 93.5869 178.847 94.1949 179.455 94.6429C180.063 95.0909 180.799 95.3149 181.663 95.3149C182.303 95.3149 182.831 95.2189 183.247 95.0269C183.695 94.8029 184.063 94.5629 184.351 94.3069C184.639 94.0189 184.863 93.7789 185.023 93.5869C185.311 93.2669 185.535 93.0749 185.695 93.0109C185.887 92.9149 186.175 92.8669 186.559 92.8669H192.511C192.831 92.8669 193.087 92.9629 193.279 93.1549C193.503 93.3149 193.599 93.5549 193.567 93.8749C193.535 94.4189 193.263 95.0749 192.751 95.8429C192.239 96.6109 191.487 97.3789 190.495 98.1469C189.535 98.8829 188.319 99.4909 186.847 99.9709C185.375 100.451 183.663 100.691 181.711 100.691ZM177.631 85.1869H185.743V85.0909C185.743 84.0669 185.583 83.1709 185.263 82.4029C184.975 81.6349 184.511 81.0429 183.871 80.6269C183.263 80.2109 182.527 80.0029 181.663 80.0029C180.799 80.0029 180.063 80.2109 179.455 80.6269C178.879 81.0429 178.431 81.6349 178.111 82.4029C177.791 83.1709 177.631 84.0669 177.631 85.0909V85.1869ZM208.963 100.691C206.883 100.691 205.107 100.467 203.635 100.019C202.195 99.5389 201.011 98.9629 200.083 98.2909C199.187 97.6189 198.515 96.9309 198.067 96.2269C197.619 95.4909 197.379 94.8669 197.347 94.3549C197.315 94.0029 197.427 93.7149 197.683 93.4909C197.939 93.2349 198.211 93.1069 198.499 93.1069H203.971C204.067 93.1069 204.147 93.1229 204.211 93.1549C204.275 93.1869 204.371 93.2509 204.499 93.3469C204.915 93.5709 205.331 93.8589 205.747 94.2109C206.163 94.5309 206.643 94.8189 207.187 95.0749C207.731 95.3309 208.387 95.4589 209.155 95.4589C210.051 95.4589 210.803 95.2829 211.411 94.9309C212.019 94.5789 212.323 94.0509 212.323 93.3469C212.323 92.8349 212.179 92.4189 211.891 92.0989C211.603 91.7469 211.011 91.4109 210.115 91.0909C209.251 90.7709 207.939 90.4509 206.179 90.1309C204.515 89.7469 203.059 89.2509 201.811 88.6429C200.563 88.0029 199.603 87.1869 198.931 86.1949C198.259 85.1709 197.923 83.9389 197.923 82.4989C197.923 81.2189 198.339 79.9869 199.171 78.8029C200.003 77.6189 201.219 76.6589 202.819 75.9229C204.419 75.1549 206.387 74.7709 208.723 74.7709C210.579 74.7709 212.179 74.9949 213.523 75.4429C214.899 75.8589 216.051 76.4029 216.979 77.0749C217.939 77.7469 218.659 78.4349 219.139 79.1389C219.619 79.8429 219.875 80.4829 219.907 81.0589C219.939 81.3789 219.843 81.6669 219.619 81.9229C219.395 82.1469 219.139 82.2589 218.851 82.2589H213.859C213.731 82.2589 213.603 82.2429 213.475 82.2109C213.347 82.1469 213.235 82.0829 213.139 82.0189C212.755 81.8269 212.371 81.5709 211.987 81.2509C211.603 80.9309 211.155 80.6429 210.643 80.3869C210.131 80.1309 209.491 80.0029 208.723 80.0029C207.859 80.0029 207.187 80.1949 206.707 80.5789C206.227 80.9629 205.987 81.4589 205.987 82.0669C205.987 82.4829 206.115 82.8669 206.371 83.2189C206.659 83.5709 207.219 83.8909 208.051 84.1789C208.915 84.4669 210.243 84.7869 212.035 85.1389C214.243 85.4909 216.003 86.0669 217.315 86.8669C218.627 87.6349 219.555 88.5469 220.099 89.6029C220.643 90.6269 220.915 91.7149 220.915 92.8669C220.915 94.4029 220.451 95.7629 219.523 96.9469C218.627 98.1309 217.283 99.0589 215.491 99.7309C213.699 100.371 211.523 100.691 208.963 100.691Z" fill="black"/>
</svg>
