<svg width="527" height="115" viewBox="0 0 527 115" fill="none" xmlns="http://www.w3.org/2000/svg">
<path opacity="0.5" d="M18.548 90.2598C17.524 90.2598 16.692 89.9718 16.052 89.3958C15.476 88.8198 15.124 88.1158 14.996 87.2838L4.052 25.7478C3.988 25.6198 3.956 25.4918 3.956 25.3638C3.956 25.2358 3.956 25.1398 3.956 25.0758C3.956 24.5638 4.148 24.1158 4.532 23.7318C4.916 23.2838 5.396 23.0598 5.972 23.0598H16.052C17.716 23.0598 18.644 23.7318 18.836 25.0758L26.036 65.6838L33.812 40.4358C34.004 39.9238 34.324 39.3798 34.772 38.8038C35.22 38.2278 35.956 37.9398 36.98 37.9398H43.028C44.052 37.9398 44.788 38.2278 45.236 38.8038C45.684 39.3798 45.972 39.9238 46.1 40.4358L53.972 65.5878L61.076 25.0758C61.268 23.7318 62.228 23.0598 63.956 23.0598H74.036C74.612 23.0598 75.092 23.2838 75.476 23.7318C75.86 24.1158 76.052 24.5638 76.052 25.0758C76.052 25.1398 76.052 25.2358 76.052 25.3638C76.052 25.4918 76.02 25.6198 75.956 25.7478L65.012 87.2838C64.884 88.1158 64.5 88.8198 63.86 89.3958C63.284 89.9718 62.484 90.2598 61.46 90.2598H53.684C52.66 90.2598 51.86 90.0038 51.284 89.4918C50.772 88.9158 50.42 88.3398 50.228 87.7638L39.956 58.0038L29.78 87.7638C29.588 88.3398 29.204 88.9158 28.628 89.4918C28.116 90.0038 27.316 90.2598 26.228 90.2598H18.548ZM87.9793 90.2598C87.2753 90.2598 86.6993 90.0358 86.2513 89.5878C85.8033 89.1398 85.5793 88.5638 85.5793 87.8598V24.4998C85.5793 23.7958 85.8033 23.2198 86.2513 22.7718C86.6993 22.3238 87.2753 22.0998 87.9793 22.0998H98.3473C98.9873 22.0998 99.5313 22.3238 99.9793 22.7718C100.427 23.2198 100.651 23.7958 100.651 24.4998V46.0998C102.379 44.0518 104.491 42.4198 106.987 41.2038C109.483 39.9878 112.491 39.3798 116.011 39.3798C119.787 39.3798 123.115 40.2438 125.995 41.9718C128.939 43.6358 131.243 46.0998 132.907 49.3638C134.571 52.5638 135.403 56.4678 135.403 61.0758V87.8598C135.403 88.5638 135.179 89.1398 134.731 89.5878C134.283 90.0358 133.707 90.2598 133.003 90.2598H122.539C121.899 90.2598 121.355 90.0358 120.907 89.5878C120.459 89.1398 120.235 88.5638 120.235 87.8598V61.6518C120.235 58.2598 119.403 55.6358 117.739 53.7798C116.075 51.8598 113.707 50.8998 110.635 50.8998C107.627 50.8998 105.195 51.8598 103.339 53.7798C101.547 55.6358 100.651 58.2598 100.651 61.6518V87.8598C100.651 88.5638 100.427 89.1398 99.9793 89.5878C99.5313 90.0358 98.9873 90.2598 98.3473 90.2598H87.9793ZM169.74 91.2198C164.428 91.2198 159.98 90.3558 156.396 88.6278C152.812 86.8358 150.06 84.3078 148.14 81.0438C146.284 77.7798 145.26 73.9718 145.068 69.6198C145.004 68.3398 144.972 66.8998 144.972 65.2998C144.972 63.6358 145.004 62.1958 145.068 60.9798C145.26 56.5638 146.348 52.7558 148.332 49.5558C150.316 46.2918 153.1 43.7958 156.684 42.0678C160.268 40.2758 164.62 39.3798 169.74 39.3798C174.796 39.3798 179.116 40.2758 182.7 42.0678C186.284 43.7958 189.068 46.2918 191.052 49.5558C193.036 52.7558 194.124 56.5638 194.316 60.9798C194.444 62.1958 194.508 63.6358 194.508 65.2998C194.508 66.8998 194.444 68.3398 194.316 69.6198C194.124 73.9718 193.068 77.7798 191.148 81.0438C189.292 84.3078 186.572 86.8358 182.988 88.6278C179.404 90.3558 174.988 91.2198 169.74 91.2198ZM169.74 80.6598C172.876 80.6598 175.244 79.6998 176.844 77.7798C178.444 75.7958 179.308 72.9158 179.436 69.1398C179.5 68.1798 179.532 66.8998 179.532 65.2998C179.532 63.6998 179.5 62.4198 179.436 61.4598C179.308 57.7478 178.444 54.8998 176.844 52.9158C175.244 50.9318 172.876 49.9398 169.74 49.9398C166.604 49.9398 164.204 50.9318 162.54 52.9158C160.94 54.8998 160.076 57.7478 159.948 61.4598C159.884 62.4198 159.852 63.6998 159.852 65.2998C159.852 66.8998 159.884 68.1798 159.948 69.1398C160.076 72.9158 160.94 75.7958 162.54 77.7798C164.204 79.6998 166.604 80.6598 169.74 80.6598ZM237.307 90.2598C236.411 90.2598 235.707 90.0358 235.195 89.5878C234.747 89.1398 234.395 88.5638 234.139 87.8598L220.411 43.4118C220.283 43.0918 220.219 42.7718 220.219 42.4518C220.219 41.8758 220.411 41.3958 220.795 41.0118C221.243 40.5638 221.755 40.3398 222.331 40.3398H230.779C231.611 40.3398 232.251 40.5638 232.699 41.0118C233.147 41.4598 233.435 41.8758 233.563 42.2598L242.299 71.9238L251.611 42.4518C251.739 42.0038 252.027 41.5558 252.475 41.1078C252.987 40.5958 253.691 40.3398 254.587 40.3398H260.059C260.955 40.3398 261.627 40.5958 262.075 41.1078C262.587 41.5558 262.907 42.0038 263.035 42.4518L272.347 71.9238L281.083 42.2598C281.147 41.8758 281.403 41.4598 281.851 41.0118C282.363 40.5638 283.003 40.3398 283.771 40.3398H292.219C292.795 40.3398 293.275 40.5638 293.659 41.0118C294.107 41.3958 294.331 41.8758 294.331 42.4518C294.331 42.7718 294.299 43.0918 294.235 43.4118L280.411 87.8598C280.219 88.5638 279.867 89.1398 279.355 89.5878C278.907 90.0358 278.235 90.2598 277.339 90.2598H269.947C269.051 90.2598 268.347 90.0358 267.835 89.5878C267.323 89.1398 266.939 88.5638 266.683 87.8598L257.371 59.4438L247.867 87.8598C247.675 88.5638 247.323 89.1398 246.811 89.5878C246.299 90.0358 245.595 90.2598 244.699 90.2598H237.307ZM324.039 91.2198C316.679 91.2198 310.823 89.1718 306.471 85.0758C302.183 80.9798 299.911 75.0278 299.655 67.2198C299.655 66.7078 299.655 66.0358 299.655 65.2038C299.655 64.3078 299.655 63.6038 299.655 63.0918C299.911 58.1638 301.031 53.9398 303.015 50.4198C304.999 46.8358 307.783 44.1158 311.367 42.2598C314.951 40.3398 319.143 39.3798 323.943 39.3798C329.319 39.3798 333.799 40.4998 337.383 42.7398C341.031 44.9158 343.751 47.9238 345.543 51.7638C347.399 55.5398 348.327 59.8918 348.327 64.8198V67.0278C348.327 67.6678 348.071 68.2118 347.559 68.6598C347.111 69.1078 346.567 69.3318 345.927 69.3318H314.535C314.535 69.3958 314.535 69.5238 314.535 69.7158C314.535 69.8438 314.535 69.9718 314.535 70.0998C314.599 72.1478 314.983 74.0358 315.687 75.7638C316.455 77.4278 317.511 78.7718 318.855 79.7958C320.263 80.8198 321.927 81.3318 323.847 81.3318C325.447 81.3318 326.759 81.1078 327.783 80.6598C328.807 80.2118 329.639 79.6678 330.279 79.0278C330.983 78.3878 331.495 77.8438 331.815 77.3958C332.391 76.7558 332.839 76.3718 333.159 76.2438C333.543 76.0518 334.119 75.9558 334.887 75.9558H344.871C345.511 75.9558 346.023 76.1478 346.407 76.5318C346.855 76.8518 347.047 77.3318 346.983 77.9718C346.919 78.9958 346.375 80.2758 345.351 81.8118C344.391 83.2838 342.951 84.7558 341.031 86.2278C339.111 87.6358 336.711 88.8198 333.831 89.7798C331.015 90.7398 327.751 91.2198 324.039 91.2198ZM314.535 60.5958H333.351V60.4038C333.351 58.0998 332.967 56.1158 332.199 54.4518C331.495 52.7238 330.439 51.3798 329.031 50.4198C327.623 49.4598 325.927 48.9798 323.943 48.9798C321.959 48.9798 320.263 49.4598 318.855 50.4198C317.447 51.3798 316.359 52.7238 315.591 54.4518C314.887 56.1158 314.535 58.0998 314.535 60.4038V60.5958ZM393.799 91.2198C390.407 91.2198 387.367 90.5798 384.679 89.2998C381.991 87.9558 379.847 86.1638 378.247 83.9238C376.647 81.6838 375.847 79.1878 375.847 76.4358C375.847 71.8918 377.671 68.3078 381.319 65.6838C385.031 63.0598 389.895 61.2678 395.911 60.3078L408.487 58.4838V56.7558C408.487 54.2598 407.911 52.3398 406.759 50.9958C405.607 49.6518 403.591 48.9798 400.711 48.9798C398.599 48.9798 396.903 49.3958 395.623 50.2278C394.343 51.0598 393.351 52.1478 392.647 53.4918C392.135 54.3238 391.399 54.7398 390.439 54.7398H381.319C380.615 54.7398 380.071 54.5478 379.687 54.1638C379.303 53.7158 379.143 53.2038 379.207 52.6278C379.207 51.5398 379.623 50.2598 380.455 48.7878C381.287 47.3158 382.567 45.8758 384.295 44.4678C386.023 42.9958 388.231 41.7798 390.919 40.8198C393.607 39.8598 396.903 39.3798 400.807 39.3798C404.839 39.3798 408.295 39.8598 411.175 40.8198C414.055 41.7798 416.359 43.1238 418.087 44.8518C419.815 46.5798 421.095 48.5958 421.927 50.8998C422.759 53.1398 423.175 55.5718 423.175 58.1958V87.8598C423.175 88.5638 422.951 89.1398 422.503 89.5878C422.055 90.0358 421.479 90.2598 420.775 90.2598H411.367C410.727 90.2598 410.183 90.0358 409.735 89.5878C409.287 89.1398 409.063 88.5638 409.063 87.8598V84.3078C408.231 85.5238 407.111 86.6758 405.703 87.7638C404.295 88.7878 402.599 89.6198 400.615 90.2598C398.694 90.8998 396.423 91.2198 393.799 91.2198ZM397.639 81.2358C399.751 81.2358 401.639 80.7878 403.303 79.8918C404.967 78.9958 406.279 77.6198 407.239 75.7638C408.199 73.9078 408.679 71.5718 408.679 68.7558V67.1238L399.751 68.5638C396.295 69.1398 393.767 70.0038 392.167 71.1558C390.567 72.3078 389.767 73.7158 389.767 75.3798C389.767 76.5958 390.119 77.6518 390.823 78.5478C391.591 79.4438 392.583 80.1158 393.799 80.5638C395.015 81.0118 396.295 81.2358 397.639 81.2358ZM437.102 90.2598C436.462 90.2598 435.918 90.0358 435.47 89.5878C435.022 89.1398 434.798 88.5638 434.798 87.8598V42.7398C434.798 42.0998 435.022 41.5558 435.47 41.1078C435.918 40.5958 436.462 40.3398 437.102 40.3398H446.51C447.15 40.3398 447.694 40.5958 448.142 41.1078C448.654 41.5558 448.91 42.0998 448.91 42.7398V46.5798C450.51 44.5958 452.462 43.0598 454.766 41.9718C457.134 40.8838 459.854 40.3398 462.926 40.3398H467.054C467.694 40.3398 468.238 40.5638 468.686 41.0118C469.134 41.4598 469.358 42.0358 469.358 42.7398V50.9958C469.358 51.6998 469.134 52.2758 468.686 52.7238C468.238 53.1718 467.694 53.3958 467.054 53.3958H458.606C455.79 53.3958 453.582 54.1958 451.982 55.7958C450.382 57.3318 449.582 59.5398 449.582 62.4198V87.8598C449.582 88.5638 449.358 89.1398 448.91 89.5878C448.462 90.0358 447.886 90.2598 447.182 90.2598H437.102ZM498.226 91.2198C490.866 91.2198 485.01 89.1718 480.658 85.0758C476.37 80.9798 474.098 75.0278 473.842 67.2198C473.842 66.7078 473.842 66.0358 473.842 65.2038C473.842 64.3078 473.842 63.6038 473.842 63.0918C474.098 58.1638 475.218 53.9398 477.202 50.4198C479.186 46.8358 481.97 44.1158 485.554 42.2598C489.138 40.3398 493.33 39.3798 498.13 39.3798C503.506 39.3798 507.986 40.4998 511.57 42.7398C515.218 44.9158 517.938 47.9238 519.73 51.7638C521.586 55.5398 522.514 59.8918 522.514 64.8198V67.0278C522.514 67.6678 522.258 68.2118 521.746 68.6598C521.298 69.1078 520.754 69.3318 520.114 69.3318H488.722C488.722 69.3958 488.722 69.5238 488.722 69.7158C488.722 69.8438 488.722 69.9718 488.722 70.0998C488.786 72.1478 489.17 74.0358 489.874 75.7638C490.642 77.4278 491.698 78.7718 493.042 79.7958C494.45 80.8198 496.114 81.3318 498.034 81.3318C499.634 81.3318 500.946 81.1078 501.97 80.6598C502.994 80.2118 503.826 79.6678 504.466 79.0278C505.17 78.3878 505.682 77.8438 506.002 77.3958C506.578 76.7558 507.026 76.3718 507.346 76.2438C507.73 76.0518 508.306 75.9558 509.074 75.9558H519.058C519.698 75.9558 520.21 76.1478 520.594 76.5318C521.042 76.8518 521.234 77.3318 521.17 77.9718C521.106 78.9958 520.562 80.2758 519.538 81.8118C518.578 83.2838 517.138 84.7558 515.218 86.2278C513.298 87.6358 510.898 88.8198 508.018 89.7798C505.202 90.7398 501.938 91.2198 498.226 91.2198ZM488.722 60.5958H507.538V60.4038C507.538 58.0998 507.154 56.1158 506.386 54.4518C505.682 52.7238 504.626 51.3798 503.218 50.4198C501.81 49.4598 500.114 48.9798 498.13 48.9798C496.146 48.9798 494.45 49.4598 493.042 50.4198C491.634 51.3798 490.546 52.7238 489.778 54.4518C489.074 56.1158 488.722 58.0998 488.722 60.4038V60.5958Z" fill="#E5E5E5"/>
<path d="M23.032 90.6309C22.3493 90.6309 21.7947 90.4389 21.368 90.0549C20.984 89.6709 20.7493 89.2015 20.664 88.6469L13.368 47.6229C13.3253 47.5375 13.304 47.4522 13.304 47.3669C13.304 47.2815 13.304 47.2175 13.304 47.1749C13.304 46.8335 13.432 46.5349 13.688 46.2789C13.944 45.9802 14.264 45.8309 14.648 45.8309H21.368C22.4773 45.8309 23.096 46.2789 23.224 47.1749L28.024 74.2469L33.208 57.4149C33.336 57.0735 33.5493 56.7109 33.848 56.3269C34.1467 55.9429 34.6373 55.7509 35.32 55.7509H39.352C40.0347 55.7509 40.5253 55.9429 40.824 56.3269C41.1227 56.7109 41.3147 57.0735 41.4 57.4149L46.648 74.1829L51.384 47.1749C51.512 46.2789 52.152 45.8309 53.304 45.8309H60.024C60.408 45.8309 60.728 45.9802 60.984 46.2789C61.24 46.5349 61.368 46.8335 61.368 47.1749C61.368 47.2175 61.368 47.2815 61.368 47.3669C61.368 47.4522 61.3467 47.5375 61.304 47.6229L54.008 88.6469C53.9227 89.2015 53.6667 89.6709 53.24 90.0549C52.856 90.4389 52.3227 90.6309 51.64 90.6309H46.456C45.7733 90.6309 45.24 90.4602 44.856 90.1189C44.5147 89.7349 44.28 89.3509 44.152 88.9669L37.304 69.1269L30.52 88.9669C30.392 89.3509 30.136 89.7349 29.752 90.1189C29.4107 90.4602 28.8773 90.6309 28.152 90.6309H23.032ZM69.3195 90.6309C68.8502 90.6309 68.4662 90.4815 68.1675 90.1829C67.8688 89.8842 67.7195 89.5002 67.7195 89.0309V46.7909C67.7195 46.3215 67.8688 45.9375 68.1675 45.6389C68.4662 45.3402 68.8502 45.1909 69.3195 45.1909H76.2315C76.6582 45.1909 77.0208 45.3402 77.3195 45.6389C77.6182 45.9375 77.7675 46.3215 77.7675 46.7909V61.1909C78.9195 59.8255 80.3275 58.7375 81.9915 57.9269C83.6555 57.1162 85.6608 56.7109 88.0075 56.7109C90.5248 56.7109 92.7435 57.2869 94.6635 58.4389C96.6262 59.5482 98.1622 61.1909 99.2715 63.3669C100.381 65.5002 100.936 68.1029 100.936 71.1749V89.0309C100.936 89.5002 100.786 89.8842 100.488 90.1829C100.189 90.4815 99.8048 90.6309 99.3355 90.6309H92.3595C91.9328 90.6309 91.5702 90.4815 91.2715 90.1829C90.9728 89.8842 90.8235 89.5002 90.8235 89.0309V71.5589C90.8235 69.2975 90.2688 67.5482 89.1595 66.3109C88.0502 65.0309 86.4715 64.3909 84.4235 64.3909C82.4182 64.3909 80.7968 65.0309 79.5595 66.3109C78.3648 67.5482 77.7675 69.2975 77.7675 71.5589V89.0309C77.7675 89.5002 77.6182 89.8842 77.3195 90.1829C77.0208 90.4815 76.6582 90.6309 76.2315 90.6309H69.3195ZM123.827 91.2709C120.285 91.2709 117.32 90.6949 114.931 89.5429C112.541 88.3482 110.707 86.6629 109.427 84.4869C108.189 82.3109 107.507 79.7722 107.379 76.8709C107.336 76.0175 107.315 75.0575 107.315 73.9909C107.315 72.8815 107.336 71.9215 107.379 71.1109C107.507 68.1669 108.232 65.6282 109.555 63.4949C110.877 61.3189 112.733 59.6549 115.123 58.5029C117.512 57.3082 120.413 56.7109 123.827 56.7109C127.197 56.7109 130.077 57.3082 132.467 58.5029C134.856 59.6549 136.712 61.3189 138.035 63.4949C139.357 65.6282 140.083 68.1669 140.211 71.1109C140.296 71.9215 140.339 72.8815 140.339 73.9909C140.339 75.0575 140.296 76.0175 140.211 76.8709C140.083 79.7722 139.379 82.3109 138.099 84.4869C136.861 86.6629 135.048 88.3482 132.659 89.5429C130.269 90.6949 127.325 91.2709 123.827 91.2709ZM123.827 84.2309C125.917 84.2309 127.496 83.5909 128.563 82.3109C129.629 80.9882 130.205 79.0682 130.291 76.5509C130.333 75.9109 130.355 75.0575 130.355 73.9909C130.355 72.9242 130.333 72.0709 130.291 71.4309C130.205 68.9562 129.629 67.0575 128.563 65.7349C127.496 64.4122 125.917 63.7509 123.827 63.7509C121.736 63.7509 120.136 64.4122 119.027 65.7349C117.96 67.0575 117.384 68.9562 117.299 71.4309C117.256 72.0709 117.235 72.9242 117.235 73.9909C117.235 75.0575 117.256 75.9109 117.299 76.5509C117.384 79.0682 117.96 80.9882 119.027 82.3109C120.136 83.5909 121.736 84.2309 123.827 84.2309ZM168.872 90.6309C168.274 90.6309 167.805 90.4815 167.464 90.1829C167.165 89.8842 166.93 89.5002 166.76 89.0309L157.608 59.3989C157.522 59.1855 157.48 58.9722 157.48 58.7589C157.48 58.3749 157.608 58.0549 157.864 57.7989C158.162 57.5002 158.504 57.3509 158.888 57.3509H164.52C165.074 57.3509 165.501 57.5002 165.8 57.7989C166.098 58.0975 166.29 58.3749 166.376 58.6309L172.2 78.4069L178.408 58.7589C178.493 58.4602 178.685 58.1615 178.984 57.8629C179.325 57.5215 179.794 57.3509 180.392 57.3509H184.04C184.637 57.3509 185.085 57.5215 185.384 57.8629C185.725 58.1615 185.938 58.4602 186.024 58.7589L192.232 78.4069L198.056 58.6309C198.098 58.3749 198.269 58.0975 198.568 57.7989C198.909 57.5002 199.336 57.3509 199.848 57.3509H205.48C205.864 57.3509 206.184 57.5002 206.44 57.7989C206.738 58.0549 206.888 58.3749 206.888 58.7589C206.888 58.9722 206.866 59.1855 206.824 59.3989L197.608 89.0309C197.48 89.5002 197.245 89.8842 196.904 90.1829C196.605 90.4815 196.157 90.6309 195.56 90.6309H190.632C190.034 90.6309 189.565 90.4815 189.224 90.1829C188.882 89.8842 188.626 89.5002 188.456 89.0309L182.248 70.0869L175.912 89.0309C175.784 89.5002 175.549 89.8842 175.208 90.1829C174.866 90.4815 174.397 90.6309 173.8 90.6309H168.872ZM226.693 91.2709C221.786 91.2709 217.882 89.9055 214.981 87.1749C212.122 84.4442 210.607 80.4762 210.437 75.2709C210.437 74.9295 210.437 74.4815 210.437 73.9269C210.437 73.3295 210.437 72.8602 210.437 72.5189C210.607 69.2335 211.354 66.4175 212.677 64.0709C213.999 61.6815 215.855 59.8682 218.245 58.6309C220.634 57.3509 223.429 56.7109 226.628 56.7109C230.213 56.7109 233.199 57.4575 235.589 58.9509C238.021 60.4015 239.834 62.4069 241.029 64.9669C242.266 67.4842 242.885 70.3855 242.885 73.6709V75.1429C242.885 75.5695 242.714 75.9322 242.373 76.2309C242.074 76.5295 241.711 76.6789 241.285 76.6789H220.357C220.357 76.7215 220.357 76.8069 220.357 76.9349C220.357 77.0202 220.357 77.1055 220.357 77.1909C220.399 78.5562 220.655 79.8149 221.125 80.9669C221.637 82.0762 222.341 82.9722 223.237 83.6549C224.175 84.3375 225.285 84.6789 226.565 84.6789C227.631 84.6789 228.506 84.5295 229.189 84.2309C229.871 83.9322 230.426 83.5695 230.853 83.1429C231.322 82.7162 231.663 82.3535 231.877 82.0549C232.261 81.6282 232.559 81.3722 232.773 81.2869C233.029 81.1589 233.413 81.0949 233.925 81.0949H240.581C241.007 81.0949 241.349 81.2229 241.604 81.4789C241.903 81.6922 242.031 82.0122 241.989 82.4389C241.946 83.1215 241.583 83.9749 240.901 84.9989C240.261 85.9802 239.301 86.9615 238.021 87.9429C236.741 88.8815 235.141 89.6709 233.221 90.3109C231.343 90.9509 229.167 91.2709 226.693 91.2709ZM220.357 70.8549H232.901V70.7269C232.901 69.1909 232.645 67.8682 232.133 66.7589C231.663 65.6069 230.959 64.7109 230.021 64.0709C229.082 63.4309 227.951 63.1109 226.628 63.1109C225.306 63.1109 224.175 63.4309 223.237 64.0709C222.298 64.7109 221.573 65.6069 221.061 66.7589C220.591 67.8682 220.357 69.1909 220.357 70.7269V70.8549ZM273.199 91.2709C270.938 91.2709 268.911 90.8442 267.119 89.9909C265.327 89.0949 263.898 87.9002 262.831 86.4069C261.764 84.9135 261.231 83.2495 261.231 81.4149C261.231 78.3855 262.447 75.9962 264.879 74.2469C267.354 72.4975 270.596 71.3029 274.607 70.6629L282.991 69.4469V68.2949C282.991 66.6309 282.607 65.3509 281.839 64.4549C281.071 63.5589 279.727 63.1109 277.807 63.1109C276.399 63.1109 275.268 63.3882 274.415 63.9429C273.562 64.4975 272.9 65.2229 272.431 66.1189C272.09 66.6735 271.599 66.9509 270.959 66.9509H264.879C264.41 66.9509 264.047 66.8229 263.791 66.5669C263.535 66.2682 263.428 65.9269 263.471 65.5429C263.471 64.8175 263.748 63.9642 264.303 62.9829C264.858 62.0015 265.711 61.0415 266.863 60.1029C268.015 59.1215 269.487 58.3109 271.279 57.6709C273.071 57.0309 275.268 56.7109 277.871 56.7109C280.559 56.7109 282.863 57.0309 284.783 57.6709C286.703 58.3109 288.239 59.2069 289.391 60.3589C290.543 61.5109 291.396 62.8549 291.951 64.3909C292.506 65.8842 292.783 67.5055 292.783 69.2549V89.0309C292.783 89.5002 292.634 89.8842 292.335 90.1829C292.036 90.4815 291.652 90.6309 291.183 90.6309H284.911C284.484 90.6309 284.122 90.4815 283.823 90.1829C283.524 89.8842 283.375 89.5002 283.375 89.0309V86.6629C282.82 87.4735 282.074 88.2415 281.135 88.9669C280.196 89.6495 279.066 90.2042 277.743 90.6309C276.463 91.0575 274.948 91.2709 273.199 91.2709ZM275.759 84.6149C277.167 84.6149 278.426 84.3162 279.535 83.7189C280.644 83.1215 281.519 82.2042 282.159 80.9669C282.799 79.7295 283.119 78.1722 283.119 76.2949V75.2069L277.167 76.1669C274.863 76.5509 273.178 77.1269 272.111 77.8949C271.044 78.6629 270.511 79.6015 270.511 80.7109C270.511 81.5215 270.746 82.2255 271.215 82.8229C271.727 83.4202 272.388 83.8682 273.199 84.1669C274.01 84.4655 274.863 84.6149 275.759 84.6149ZM302.068 90.6309C301.641 90.6309 301.279 90.4815 300.98 90.1829C300.681 89.8842 300.532 89.5002 300.532 89.0309V58.9509C300.532 58.5242 300.681 58.1615 300.98 57.8629C301.279 57.5215 301.641 57.3509 302.068 57.3509H308.34C308.767 57.3509 309.129 57.5215 309.428 57.8629C309.769 58.1615 309.94 58.5242 309.94 58.9509V61.5109C311.007 60.1882 312.308 59.1642 313.844 58.4389C315.423 57.7135 317.236 57.3509 319.284 57.3509H322.036C322.463 57.3509 322.825 57.5002 323.124 57.7989C323.423 58.0975 323.572 58.4815 323.572 58.9509V64.4549C323.572 64.9242 323.423 65.3082 323.124 65.6069C322.825 65.9055 322.463 66.0549 322.036 66.0549H316.404C314.527 66.0549 313.055 66.5882 311.988 67.6549C310.921 68.6789 310.388 70.1509 310.388 72.0709V89.0309C310.388 89.5002 310.239 89.8842 309.94 90.1829C309.641 90.4815 309.257 90.6309 308.788 90.6309H302.068ZM342.818 91.2709C337.911 91.2709 334.007 89.9055 331.106 87.1749C328.247 84.4442 326.732 80.4762 326.562 75.2709C326.562 74.9295 326.562 74.4815 326.562 73.9269C326.562 73.3295 326.562 72.8602 326.562 72.5189C326.732 69.2335 327.479 66.4175 328.802 64.0709C330.124 61.6815 331.98 59.8682 334.37 58.6309C336.759 57.3509 339.554 56.7109 342.753 56.7109C346.338 56.7109 349.324 57.4575 351.714 58.9509C354.146 60.4015 355.959 62.4069 357.154 64.9669C358.391 67.4842 359.01 70.3855 359.01 73.6709V75.1429C359.01 75.5695 358.839 75.9322 358.498 76.2309C358.199 76.5295 357.836 76.6789 357.41 76.6789H336.482C336.482 76.7215 336.482 76.8069 336.482 76.9349C336.482 77.0202 336.482 77.1055 336.482 77.1909C336.524 78.5562 336.78 79.8149 337.25 80.9669C337.762 82.0762 338.466 82.9722 339.362 83.6549C340.3 84.3375 341.41 84.6789 342.69 84.6789C343.756 84.6789 344.631 84.5295 345.314 84.2309C345.996 83.9322 346.551 83.5695 346.978 83.1429C347.447 82.7162 347.788 82.3535 348.002 82.0549C348.386 81.6282 348.684 81.3722 348.898 81.2869C349.154 81.1589 349.538 81.0949 350.05 81.0949H356.706C357.132 81.0949 357.474 81.2229 357.729 81.4789C358.028 81.6922 358.156 82.0122 358.114 82.4389C358.071 83.1215 357.708 83.9749 357.026 84.9989C356.386 85.9802 355.426 86.9615 354.146 87.9429C352.866 88.8815 351.266 89.6709 349.346 90.3109C347.468 90.9509 345.292 91.2709 342.818 91.2709ZM336.482 70.8549H349.026V70.7269C349.026 69.1909 348.77 67.8682 348.258 66.7589C347.788 65.6069 347.084 64.7109 346.146 64.0709C345.207 63.4309 344.076 63.1109 342.753 63.1109C341.431 63.1109 340.3 63.4309 339.362 64.0709C338.423 64.7109 337.698 65.6069 337.186 66.7589C336.716 67.8682 336.482 69.1909 336.482 70.7269V70.8549Z" fill="#262626"/>
</svg>
