<svg width="24" height="25" viewBox="0 0 24 25" fill="none" xmlns="http://www.w3.org/2000/svg">
<g clip-path="url(#clip0_2_10939)">
<path d="M12.0037 8.20561C9.73225 8.20561 7.90011 10.0091 7.90011 12.2451C7.90011 14.481 9.73225 16.2845 12.0037 16.2845C14.2751 16.2845 16.1073 14.481 16.1073 12.2451C16.1073 10.0091 14.2751 8.20561 12.0037 8.20561ZM12.0037 14.8712C10.5358 14.8712 9.33583 13.6935 9.33583 12.2451C9.33583 10.7966 10.5323 9.61889 12.0037 9.61889C13.4751 9.61889 14.6715 10.7966 14.6715 12.2451C14.6715 13.6935 13.4715 14.8712 12.0037 14.8712ZM17.2322 8.04038C17.2322 8.56421 16.8037 8.98257 16.2751 8.98257C15.743 8.98257 15.318 8.56069 15.318 8.04038C15.318 7.52007 15.7465 7.09819 16.2751 7.09819C16.8037 7.09819 17.2322 7.52007 17.2322 8.04038ZM19.9501 8.99663C19.8894 7.73452 19.5965 6.61655 18.6572 5.69546C17.7215 4.77436 16.5858 4.48608 15.3037 4.4228C13.9823 4.34897 10.0215 4.34897 8.70011 4.4228C7.42154 4.48257 6.28583 4.77085 5.34654 5.69194C4.40726 6.61304 4.11797 7.731 4.05369 8.99311C3.97869 10.2939 3.97869 14.1927 4.05369 15.4935C4.1144 16.7556 4.40726 17.8736 5.34654 18.7947C6.28583 19.7158 7.41797 20.004 8.70011 20.0673C10.0215 20.1412 13.9823 20.1412 15.3037 20.0673C16.5858 20.0076 17.7215 19.7193 18.6572 18.7947C19.593 17.8736 19.8858 16.7556 19.9501 15.4935C20.0251 14.1927 20.0251 10.2974 19.9501 8.99663ZM18.243 16.8892C17.9644 17.5783 17.4251 18.1091 16.7215 18.3869C15.668 18.7982 13.168 18.7033 12.0037 18.7033C10.8394 18.7033 8.33583 18.7947 7.28583 18.3869C6.58583 18.1126 6.04654 17.5818 5.7644 16.8892C5.34654 15.8521 5.44297 13.3912 5.44297 12.2451C5.44297 11.099 5.35011 8.63452 5.7644 7.60093C6.04297 6.91186 6.58226 6.381 7.28583 6.10327C8.3394 5.69194 10.8394 5.78686 12.0037 5.78686C13.168 5.78686 15.6715 5.69546 16.7215 6.10327C17.4215 6.37749 17.9608 6.90835 18.243 7.60093C18.6608 8.63803 18.5644 11.099 18.5644 12.2451C18.5644 13.3912 18.6608 15.8556 18.243 16.8892Z" fill="#383838"/>
</g>
<defs>
<clipPath id="clip0_2_10939">
<rect width="16" height="18" fill="white" transform="translate(4.00012 3.24854)"/>
</clipPath>
</defs>
</svg>
