<svg width="24" height="25" viewBox="0 0 24 25" fill="none" xmlns="http://www.w3.org/2000/svg">
<g clip-path="url(#clip0_2_10931)">
<path d="M20.9998 6.95343C20.3258 7.2379 19.6108 7.42463 18.8788 7.5074C19.6413 7.072 20.2268 6.38251 20.5025 5.561C19.7776 5.97081 18.9845 6.25955 18.1575 6.41473C17.4838 5.73101 16.5241 5.30371 15.4619 5.30371C13.4224 5.30371 11.7689 6.87894 11.7689 8.8218C11.7689 9.09758 11.8016 9.36605 11.8645 9.62361C8.79539 9.47685 6.0743 8.07625 4.25286 5.94771C3.93504 6.46732 3.75293 7.07173 3.75293 7.7164C3.75293 8.93701 4.40494 10.0138 5.39579 10.6447C4.80934 10.6272 4.2358 10.4763 3.72305 10.2046C3.72284 10.2194 3.72284 10.2341 3.72284 10.2489C3.72284 11.9535 4.99578 13.3755 6.68511 13.6987C6.1413 13.8396 5.57088 13.8602 5.01743 13.759C5.48733 15.1567 6.85118 16.1738 8.46711 16.2023C7.20324 17.1458 5.61087 17.7083 3.88076 17.7083C3.58264 17.7083 3.28873 17.6916 2.99982 17.6591C4.63409 18.6574 6.57521 19.2398 8.66068 19.2398C15.4534 19.2398 19.1678 13.8789 19.1678 9.2298C19.1678 9.07721 19.1642 8.92549 19.1571 8.77464C19.88 8.27672 20.5041 7.66001 20.9998 6.95343Z" fill="#383838"/>
</g>
<defs>
<clipPath id="clip0_2_10931">
<rect width="18" height="14" fill="white" transform="translate(2.99982 5.24854)"/>
</clipPath>
</defs>
</svg>
