<svg width="24" height="25" viewBox="0 0 24 25" fill="none" xmlns="http://www.w3.org/2000/svg">
<g clip-path="url(#clip0_2_10935)">
<path d="M7.63281 19.2485V9.12807H4.20251V19.2485H7.63281ZM5.9181 7.74546C7.11431 7.74546 7.85889 6.96832 7.85889 5.99716C7.8366 5.0041 7.11436 4.24854 5.9408 4.24854C4.76743 4.24854 4.00012 5.00412 4.00012 5.99716C4.00012 6.96837 4.74452 7.74546 5.89571 7.74546H5.918H5.9181ZM9.53147 19.2485H12.9618V13.5968C12.9618 13.2943 12.9841 12.9921 13.0746 12.7759C13.3226 12.1716 13.8871 11.5457 14.8346 11.5457C16.0759 11.5457 16.5725 12.4737 16.5725 13.8342V19.2485H20.0026V13.4455C20.0026 10.3369 18.3103 8.89047 16.0533 8.89047C14.2028 8.89047 13.3903 9.9048 12.939 10.5957H12.9619V9.12785H9.53155C9.57657 10.0775 9.53155 19.2483 9.53155 19.2483L9.53147 19.2485Z" fill="#383838"/>
</g>
<defs>
<clipPath id="clip0_2_10935">
<rect width="16" height="15" fill="white" transform="translate(4.00012 4.24854)"/>
</clipPath>
</defs>
</svg>
