<svg width="69" height="75" viewBox="0 0 69 75" fill="none" xmlns="http://www.w3.org/2000/svg">
<g filter="url(#filter0_dd_2_10808)">
<ellipse cx="35.4036" cy="37.469" rx="18.097" ry="17.9084" fill="#080D20"/>
</g>
<path d="M31.9688 27.2598C31.7781 27.2598 31.5953 27.3355 31.4605 27.4703C31.3257 27.6051 31.25 27.7879 31.25 27.9785V30.1348H29.0938C28.9031 30.1348 28.7203 30.2105 28.5855 30.3453C28.4507 30.4801 28.375 30.6629 28.375 30.8535V35.419L26.9758 35.9317C26.8824 35.9659 26.7971 36.019 26.7253 36.0878C26.6534 36.1566 26.5967 36.2396 26.5586 36.3315C26.5205 36.4234 26.5019 36.5222 26.5039 36.6216C26.5059 36.7211 26.5286 36.819 26.5705 36.9092L28.8082 41.7191C29.0197 41.6491 29.2431 41.622 29.4652 41.6394C29.6873 41.6567 29.9038 41.7182 30.1018 41.8202C30.2999 41.9222 30.4757 42.0627 30.6189 42.2334C30.762 42.4041 30.8697 42.6016 30.9357 42.8145C30.9357 42.8183 30.9395 42.8269 30.9443 42.8403C31.0327 43.077 31.1536 43.3002 31.3037 43.5035C31.5682 43.8552 31.8442 44.0306 32.2083 44.0306C32.5725 44.0306 32.8485 43.8562 33.112 43.5035C33.2672 43.2931 33.3912 43.0613 33.48 42.8154C33.5858 42.4737 33.7981 42.1747 34.0859 41.9621C34.3737 41.7496 34.7219 41.6347 35.0797 41.6342C35.4374 41.6336 35.786 41.7475 36.0744 41.9592C36.3628 42.1708 36.576 42.4692 36.6828 42.8106L36.6924 42.8375C36.7817 43.0749 36.9036 43.2987 37.0546 43.5026C37.3201 43.8571 37.597 44.0306 37.9583 44.0306C38.3196 44.0306 38.5956 43.8562 38.862 43.5035C39.0178 43.2921 39.1424 43.0594 39.232 42.8126C39.3002 42.594 39.4124 42.3917 39.5617 42.2181C39.7111 42.0446 39.8944 41.9034 40.1003 41.8034C40.3063 41.7034 40.5306 41.6466 40.7593 41.6366C40.9881 41.6265 41.2164 41.6634 41.4304 41.745L43.7955 36.9236C43.8402 36.8327 43.8651 36.7334 43.8687 36.6322C43.8723 36.531 43.8545 36.4302 43.8164 36.3363C43.7783 36.2425 43.7208 36.1578 43.6477 36.0877C43.5746 36.0177 43.4875 35.9639 43.3921 35.9298L41.7917 35.3586V30.8535C41.7917 30.6629 41.7159 30.4801 41.5812 30.3453C41.4464 30.2105 41.2635 30.1348 41.0729 30.1348H38.9167V27.9785C38.9167 27.7879 38.8409 27.6051 38.7062 27.4703C38.5714 27.3355 38.3885 27.2598 38.1979 27.2598H31.9688ZM37.4792 30.1348H32.6875V28.6973H37.4792V30.1348ZM40.3542 31.5723V34.8459L36.1404 33.3423C35.455 33.098 34.7056 33.1014 34.0225 33.3519L29.8125 34.8919V31.5723H40.3542ZM41.53 43.1336L41.5272 43.124C41.4863 42.9736 41.3977 42.8405 41.2747 42.7448C41.1516 42.6492 41.0008 42.5961 40.845 42.5936C40.6891 42.5911 40.5367 42.6394 40.4107 42.7311C40.2846 42.8228 40.1918 42.9529 40.1462 43.102V43.1039L40.1424 43.1125L40.1232 43.1681C40.0017 43.4934 39.8349 43.7998 39.6278 44.0785C39.2569 44.5721 38.7279 44.9889 37.9583 44.9889C37.1888 44.9889 36.6588 44.5721 36.288 44.0785C36.0689 43.7836 35.8952 43.4577 35.7724 43.1116L35.7695 43.1029C35.7245 42.9556 35.6334 42.8265 35.5095 42.7349C35.3857 42.6433 35.2356 42.5938 35.0815 42.594C34.9275 42.5941 34.7775 42.6437 34.6538 42.7355C34.53 42.8273 34.4391 42.9565 34.3943 43.1039L34.3905 43.1144C34.358 43.2087 34.3213 43.3015 34.2803 43.3923C34.195 43.5821 34.0627 43.8332 33.8778 44.0785C33.5088 44.5721 32.9808 44.9889 32.2083 44.9889C31.4359 44.9889 30.9069 44.5721 30.537 44.0785C30.3189 43.7842 30.1461 43.4589 30.0243 43.1135L30.0214 43.1029C29.9761 42.9538 29.8836 42.8235 29.7577 42.7315C29.6319 42.6396 29.4796 42.591 29.3237 42.5932C29.1679 42.5953 29.017 42.6481 28.8937 42.7435C28.7705 42.8389 28.6816 42.9718 28.6405 43.1221L28.6376 43.1307L28.6203 43.1825C28.5075 43.5009 28.3445 43.7992 28.1373 44.0661C27.7693 44.5356 27.1828 44.9889 26.2188 44.9889C26.0281 44.9889 25.8453 45.0647 25.7105 45.1994C25.5757 45.3342 25.5 45.5171 25.5 45.7077C25.5 45.8983 25.5757 46.0811 25.7105 46.2159C25.8453 46.3507 26.0281 46.4264 26.2188 46.4264C27.7272 46.4264 28.698 45.6818 29.2691 44.9535L29.3333 44.8682L29.387 44.941C29.916 45.6454 30.8245 46.4264 32.2083 46.4264C33.5922 46.4264 34.5007 45.6454 35.0287 44.941L35.0833 44.8663L35.1389 44.942C35.6679 45.6454 36.5764 46.4264 37.9583 46.4264C39.3403 46.4264 40.2487 45.6454 40.7778 44.941L40.8305 44.8691C40.8506 44.8979 40.8717 44.9247 40.8937 44.9525C41.4639 45.6818 42.4366 46.4264 43.9479 46.4264C44.1385 46.4264 44.3214 46.3507 44.4562 46.2159C44.5909 46.0811 44.6667 45.8983 44.6667 45.7077C44.6667 45.5171 44.5909 45.3342 44.4562 45.1994C44.3214 45.0647 44.1385 44.9889 43.9479 44.9889C42.9781 44.9889 42.3925 44.5356 42.0265 44.067C41.8093 43.7863 41.6414 43.4706 41.53 43.1336Z" fill="#F2F2F2"/>
<defs>
<filter id="filter0_dd_2_10808" x="0.162154" y="0.511117" width="68.5779" height="73.9158" filterUnits="userSpaceOnUse" color-interpolation-filters="sRGB">
<feFlood flood-opacity="0" result="BackgroundImageFix"/>
<feColorMatrix in="SourceAlpha" type="matrix" values="0 0 0 0 0 0 0 0 0 0 0 0 0 0 0 0 0 0 127 0" result="hardAlpha"/>
<feOffset dy="3.80989"/>
<feGaussianBlur stdDeviation="7.61977"/>
<feComposite in2="hardAlpha" operator="out"/>
<feColorMatrix type="matrix" values="0 0 0 0 0.820833 0 0 0 0 0.820833 0 0 0 0 0.820833 0 0 0 0.15 0"/>
<feBlend mode="normal" in2="BackgroundImageFix" result="effect1_dropShadow_2_10808"/>
<feColorMatrix in="SourceAlpha" type="matrix" values="0 0 0 0 0 0 0 0 0 0 0 0 0 0 0 0 0 0 127 0" result="hardAlpha"/>
<feOffset dx="-1.90494" dy="-3.80989"/>
<feGaussianBlur stdDeviation="7.61977"/>
<feComposite in2="hardAlpha" operator="out"/>
<feColorMatrix type="matrix" values="0 0 0 0 0.819608 0 0 0 0 0.819608 0 0 0 0 0.819608 0 0 0 0.12 0"/>
<feBlend mode="normal" in2="effect1_dropShadow_2_10808" result="effect2_dropShadow_2_10808"/>
<feBlend mode="normal" in="SourceGraphic" in2="effect2_dropShadow_2_10808" result="shape"/>
</filter>
</defs>
</svg>
