<svg width="179" height="43" viewBox="0 0 179 43" fill="none" xmlns="http://www.w3.org/2000/svg">
<path d="M3.6121 37.5365H11.8636V42.2486H3.6121V37.5365ZM3.6121 37.5365V3.97624C3.6121 1.58822 14.2196 0.671387 20.0937 0.671387C25.8932 0.671387 36.5754 1.58822 36.5754 3.97624V37.5365M3.6121 37.5365H36.5754M36.5754 37.5365H28.3239V42.2486H36.5754V37.5365ZM2.2795 7.60093H3.5588V16.0656C2.87075 16.0544 2.21519 15.771 1.73564 15.2775C1.2561 14.7839 0.991649 14.1205 1.0002 13.4324V8.90155C1.00016 8.56026 1.13425 8.23264 1.37358 7.98933C1.6129 7.74602 1.93826 7.60652 2.2795 7.60093ZM37.908 7.60093H36.6287V16.0656C37.3167 16.0544 37.9723 15.771 38.4519 15.2775C38.9314 14.7839 39.1958 14.1205 39.1873 13.4324V8.90155C39.1873 8.56026 39.0532 8.23264 38.8139 7.98933C38.5746 7.74602 38.2492 7.60652 37.908 7.60093ZM20.0937 5.18092C25.9146 5.18092 30.25 5.61801 33.1 6.4922C33.3046 6.56367 33.4826 6.69584 33.6102 6.87107C33.7379 7.04631 33.809 7.25628 33.8142 7.473V25.5964C33.8142 25.8792 33.7019 26.1503 33.502 26.3502C33.3021 26.5502 33.0309 26.6625 32.7482 26.6625H7.45C7.16726 26.6625 6.8961 26.5502 6.69617 26.3502C6.49624 26.1503 6.38392 25.8792 6.38392 25.5964V7.473C6.38914 7.25628 6.4603 7.04631 6.58792 6.87107C6.71554 6.69584 6.89354 6.56367 7.0982 6.4922C9.94109 5.61801 14.2729 5.18092 20.0937 5.18092ZM8.99582 29.4556C9.70268 29.4556 10.3806 29.7364 10.8804 30.2362C11.3802 30.7361 11.661 31.414 11.661 32.1208C11.661 32.8277 11.3802 33.5056 10.8804 34.0054C10.3806 34.5052 9.70268 34.786 8.99582 34.786C8.29929 34.7748 7.63559 34.488 7.15005 33.9885C6.66451 33.489 6.39669 32.8174 6.40524 32.1208C6.39669 31.4243 6.66451 30.7527 7.15005 30.2532C7.63559 29.7536 8.29929 29.4669 8.99582 29.4556ZM31.245 29.4556C31.9518 29.4556 32.6297 29.7364 33.1296 30.2362C33.6294 30.7361 33.9102 31.414 33.9102 32.1208C33.9102 32.8277 33.6294 33.5056 33.1296 34.0054C32.6297 34.5052 31.9518 34.786 31.245 34.786C30.8974 34.7847 30.5535 34.7145 30.2331 34.5795C29.9128 34.4446 29.6223 34.2475 29.3785 33.9997C29.1347 33.752 28.9424 33.4584 28.8126 33.1359C28.6828 32.8134 28.6182 32.4684 28.6224 32.1208C28.6182 31.7733 28.6828 31.4283 28.8126 31.1058C28.9424 30.7833 29.1347 30.4897 29.3785 30.2419C29.6223 29.9942 29.9128 29.7971 30.2331 29.6622C30.5535 29.5272 30.8974 29.457 31.245 29.4556Z" stroke="#1C1C1C" stroke-width="1.06608" stroke-linecap="round" stroke-linejoin="round"/>
<path d="M66.2489 14.1435L58.7407 25.8553V31.2485H55.1981V25.8553L47.6898 14.1435H51.7612L58.0798 24.3748H55.9648L62.1776 14.1435H66.2489ZM73.4823 31.5658C71.8255 31.5658 70.3627 31.3014 69.0937 30.7727C67.8423 30.2439 66.8641 29.4772 66.1591 28.4726C65.4541 27.4503 65.1016 26.199 65.1016 24.7185C65.1016 23.238 65.4541 21.9866 66.1591 20.9643C66.8641 19.9245 67.8423 19.1402 69.0937 18.6114C70.3627 18.0827 71.8255 17.8183 73.4823 17.8183C75.139 17.8183 76.5843 18.0827 77.818 18.6114C79.0694 19.1402 80.0476 19.9245 80.7526 20.9643C81.4576 21.9866 81.8101 23.238 81.8101 24.7185C81.8101 26.199 81.4576 27.4503 80.7526 28.4726C80.0476 29.4772 79.0694 30.2439 77.818 30.7727C76.5843 31.3014 75.139 31.5658 73.4823 31.5658ZM73.4823 28.922C74.3988 28.922 75.2183 28.7634 75.941 28.4462C76.6812 28.1113 77.2628 27.6354 77.6858 27.0185C78.1088 26.384 78.3203 25.6173 78.3203 24.7185C78.3203 23.8196 78.1088 23.0529 77.6858 22.4184C77.2628 21.7663 76.69 21.2728 75.9674 20.9379C75.2448 20.603 74.4164 20.4356 73.4823 20.4356C72.5658 20.4356 71.7374 20.603 70.9972 20.9379C70.2569 21.2728 69.6665 21.7575 69.2258 22.392C68.8028 23.0265 68.5913 23.802 68.5913 24.7185C68.5913 25.6173 68.8028 26.384 69.2258 27.0185C69.6488 27.6354 70.2305 28.1113 70.9707 28.4462C71.711 28.7634 72.5482 28.922 73.4823 28.922ZM99.5523 31.2485H96.1155V18.1091H99.5523V31.2485ZM96.3005 24.93L96.327 25.8288C96.2917 26.0756 96.2036 26.4369 96.0626 26.9128C95.9216 27.371 95.7013 27.8645 95.4017 28.3933C95.1197 28.922 94.7495 29.4332 94.2913 29.9267C93.833 30.4025 93.269 30.7991 92.5993 31.1163C91.9295 31.416 91.1364 31.5658 90.2199 31.5658C89.4973 31.5658 88.7835 31.4777 88.0785 31.3014C87.3911 31.1252 86.7654 30.8343 86.2014 30.429C85.6374 30.006 85.188 29.442 84.8531 28.737C84.5182 28.032 84.3508 27.1419 84.3508 26.0668V18.1091H87.7877V25.4852C87.7877 26.3312 87.9198 27.0009 88.1842 27.4944C88.4662 27.9703 88.8716 28.3052 89.4003 28.499C89.9291 28.6929 90.5548 28.7898 91.2774 28.7898C92.2292 28.7898 93.0487 28.5872 93.7361 28.1818C94.4235 27.7588 94.9787 27.2477 95.4017 26.6484C95.8423 26.0492 96.1419 25.4763 96.3005 24.93ZM102.681 18.1091H106.118V31.2485H102.681V18.1091ZM111.168 20.9379C110.181 20.9379 109.326 21.1318 108.603 21.5195C107.881 21.8897 107.299 22.3479 106.859 22.8943C106.418 23.4407 106.11 23.9694 105.933 24.4805L105.907 23.0265C105.924 22.815 105.995 22.5065 106.118 22.1012C106.242 21.6782 106.427 21.2287 106.674 20.7528C106.92 20.2593 107.246 19.7923 107.652 19.3517C108.057 18.8934 108.551 18.5233 109.132 18.2413C109.714 17.9593 110.392 17.8183 111.168 17.8183V20.9379Z" fill="#1341EC"/>
<path d="M127.094 13.6924L126.087 21.257L124.602 15.732L120.639 16.1838L121.169 29.0798L124.37 30.7193L114.056 31.7003L117.812 28.9766L118.471 16.3129L114.379 16.158L112.791 20.8568L112.287 13.9118L127.094 13.6924ZM136.982 22.4446C136.905 22.1262 136.793 21.8551 136.646 21.6314C136.509 21.4076 136.35 21.2226 136.169 21.0763C135.997 20.9214 135.812 20.8052 135.614 20.7278C135.416 20.6417 135.218 20.5771 135.02 20.5341C134.555 20.4395 134.06 20.4438 133.535 20.547C133.355 20.6073 133.161 20.7019 132.954 20.831C132.774 20.9515 132.567 21.115 132.335 21.3216C132.102 21.5195 131.853 21.7863 131.586 22.1219L131.818 29.6091L134.142 30.7709L127.3 31.3776L129.069 29.5833L129.792 20.5987L127.042 19.3465L131.483 18.5074L131.534 20.121C131.836 19.7596 132.146 19.4627 132.464 19.2303C132.782 18.998 133.071 18.8086 133.329 18.6623C133.63 18.4988 133.923 18.374 134.207 18.288C134.723 18.1675 135.248 18.1201 135.782 18.146C136.005 18.1546 136.238 18.1804 136.479 18.2234C136.728 18.2664 136.978 18.3353 137.227 18.43C137.486 18.516 137.735 18.6365 137.976 18.7914C138.217 18.9377 138.449 19.1227 138.673 19.3465L136.982 22.4446ZM150.278 23.2063C150.278 23.6624 150.252 24.1529 150.201 24.6779C150.149 25.2029 150.072 25.7364 149.968 26.2786C149.874 26.8208 149.758 27.3543 149.62 27.8793C149.491 28.3957 149.349 28.8733 149.194 29.3122L151.944 31.2485L147.077 31.042L147.374 29.4542C146.857 30.0996 146.259 30.5945 145.579 30.9387C144.908 31.2744 144.129 31.4766 143.243 31.5454C142.52 31.5971 141.887 31.5454 141.345 31.3905C140.812 31.2442 140.364 31.0162 140.003 30.7064C139.65 30.3879 139.387 30.0007 139.215 29.5446C139.043 29.0798 138.957 28.5635 138.957 27.9955C138.957 27.4705 139.086 26.9628 139.344 26.4722C139.603 25.9731 139.973 25.5342 140.455 25.1555C140.945 24.7769 141.543 24.4756 142.249 24.2519C142.955 24.0195 143.755 23.9034 144.65 23.9034C145.063 23.9034 145.536 23.9421 146.07 24.0195C146.612 24.097 147.124 24.2605 147.606 24.5101C147.563 23.9851 147.481 23.4515 147.361 22.9094C147.249 22.3586 147.081 21.8594 146.857 21.4119C146.634 20.9644 146.341 20.603 145.98 20.3276C145.627 20.0436 145.184 19.9016 144.65 19.9016C144.194 19.9016 143.751 19.9962 143.32 20.1856C142.89 20.3749 142.486 20.646 142.107 20.9988C141.737 21.3517 141.401 21.782 141.1 22.2897C140.799 22.7975 140.545 23.3698 140.338 24.0066L139.254 17.6812L140.893 20.1985C141.298 19.6993 141.707 19.3035 142.12 19.0109C142.533 18.7097 142.942 18.4816 143.346 18.3267C143.759 18.1632 144.155 18.0556 144.534 18.004C144.921 17.9523 145.291 17.9265 145.644 17.9265C146.307 17.9609 146.918 18.0986 147.477 18.3396C148.045 18.572 148.536 18.9119 148.949 19.3594C149.362 19.7983 149.684 20.3405 149.917 20.9859C150.158 21.6314 150.278 22.3715 150.278 23.2063ZM147.606 27.3371C147.623 27.0962 147.636 26.8638 147.645 26.64C147.653 26.4163 147.658 26.1968 147.658 25.9817V25.8268C147.348 25.7063 147.034 25.6159 146.715 25.5557C146.406 25.4868 146.117 25.4395 145.85 25.4137C145.584 25.3793 145.356 25.3621 145.166 25.3621C144.986 25.3535 144.865 25.3492 144.805 25.3492C144.314 25.3664 143.888 25.4567 143.527 25.6202C143.165 25.7838 142.864 25.9903 142.623 26.2399C142.391 26.4808 142.214 26.7519 142.094 27.0531C141.982 27.3543 141.926 27.6512 141.926 27.9438C141.926 28.6065 142.085 29.11 142.404 29.4542C142.731 29.7898 143.204 29.9576 143.824 29.9576C144.237 29.9576 144.628 29.8845 144.999 29.7382C145.369 29.5919 145.713 29.3983 146.031 29.1573C146.358 28.9077 146.651 28.628 146.909 28.3182C147.176 27.9998 147.408 27.6728 147.606 27.3371ZM164.362 23.2321C164.362 23.714 164.34 24.2218 164.297 24.7553C164.254 25.2889 164.19 25.8225 164.104 26.356C164.018 26.8896 163.91 27.4103 163.781 27.918C163.661 28.4258 163.519 28.8905 163.355 29.3122L165.898 30.1384L159.173 31.4551L161.457 29.7382C161.638 29.0755 161.759 28.4387 161.819 27.8277C161.888 27.2166 161.922 26.64 161.922 26.0979C161.922 25.7708 161.909 25.4008 161.883 24.9877C161.866 24.566 161.819 24.14 161.741 23.7097C161.673 23.2794 161.569 22.8577 161.432 22.4446C161.302 22.0316 161.13 21.6658 160.915 21.3474C160.7 21.0204 160.433 20.7622 160.115 20.5728C159.805 20.3749 159.431 20.2759 158.992 20.2759C158.484 20.2759 157.968 20.4438 157.443 20.7794C156.918 21.115 156.432 21.6099 155.984 22.2639V29.4026L158.114 30.9258L151.724 31.3776L153.415 29.5058L154.319 20.121L151.569 18.7656L155.984 18.3267V20.2759C156.234 19.9317 156.509 19.609 156.81 19.3078C157.111 19.0066 157.43 18.7484 157.765 18.5332C158.101 18.3095 158.45 18.1374 158.811 18.0169C159.181 17.8878 159.56 17.8232 159.947 17.8232C160.696 17.8232 161.346 17.9609 161.896 18.2363C162.447 18.5117 162.903 18.8947 163.265 19.3852C163.635 19.8672 163.91 20.4395 164.091 21.1021C164.272 21.7562 164.362 22.4662 164.362 23.2321ZM171.552 18.1072C171.879 18.1072 172.211 18.1374 172.546 18.1976C172.882 18.2492 173.209 18.331 173.527 18.4429C173.854 18.5461 174.16 18.6752 174.444 18.8301C174.736 18.9764 174.999 19.14 175.231 19.3207L177.348 16.7131L176.393 23.1546C176.29 22.7071 176.109 22.2682 175.851 21.8379C175.593 21.399 175.27 21.0074 174.883 20.6632C174.504 20.319 174.065 20.0436 173.566 19.837C173.067 19.6219 172.52 19.5143 171.927 19.5143C171.6 19.5143 171.285 19.553 170.984 19.6305C170.683 19.6993 170.416 19.8155 170.184 19.979C169.96 20.1425 169.779 20.3491 169.642 20.5987C169.513 20.8482 169.448 21.1451 169.448 21.4894C169.448 21.9025 169.56 22.2381 169.784 22.4963C170.016 22.7545 170.317 22.9739 170.687 23.1546C171.057 23.3268 171.479 23.4774 171.952 23.6064C172.426 23.7269 172.912 23.856 173.411 23.9937C173.91 24.1314 174.396 24.2949 174.87 24.4843C175.343 24.665 175.765 24.9016 176.135 25.1942C176.505 25.4868 176.802 25.8526 177.026 26.2915C177.258 26.7218 177.374 27.2554 177.374 27.8922C177.374 28.6065 177.232 29.2175 176.948 29.7253C176.673 30.2244 176.316 30.6375 175.877 30.9645C175.438 31.283 174.952 31.5153 174.418 31.6616C173.884 31.8079 173.364 31.8811 172.856 31.8811C172.443 31.8811 172.03 31.838 171.617 31.752C171.204 31.6659 170.803 31.5454 170.416 31.3905C170.029 31.2356 169.659 31.0506 169.306 30.8354C168.962 30.6203 168.648 30.3879 168.364 30.1384L166.402 32.7589L167.008 26.356C167.284 26.9413 167.615 27.4877 168.002 27.9955C168.389 28.5032 168.82 28.9464 169.293 29.3251C169.766 29.6952 170.274 29.9878 170.816 30.2029C171.359 30.4095 171.922 30.5127 172.507 30.5127C173.187 30.5127 173.729 30.3707 174.134 30.0867C174.547 29.7941 174.754 29.381 174.754 28.8475C174.754 28.5032 174.637 28.2192 174.405 27.9955C174.181 27.7631 173.88 27.5609 173.501 27.3888C173.131 27.2166 172.71 27.0617 172.236 26.924C171.763 26.7863 171.277 26.6357 170.778 26.4722C170.279 26.3087 169.792 26.1194 169.319 25.9042C168.846 25.6805 168.42 25.4051 168.041 25.0781C167.671 24.7424 167.37 24.338 167.137 23.8646C166.914 23.3827 166.802 22.8018 166.802 22.1219C166.802 21.5367 166.888 21.029 167.06 20.5987C167.232 20.1684 167.456 19.8069 167.731 19.5143C168.015 19.2131 168.329 18.9721 168.673 18.7914C169.026 18.6021 169.379 18.4601 169.732 18.3654C170.085 18.2621 170.421 18.1933 170.739 18.1589C171.057 18.1245 171.328 18.1072 171.552 18.1072Z" fill="#1C1C1C"/>
</svg>
