<svg width="67" height="73" viewBox="0 0 67 73" fill="none" xmlns="http://www.w3.org/2000/svg">
<g filter="url(#filter0_d_2_10873)">
<rect width="52.2421" height="58.2371" rx="17.1286" transform="matrix(-1 0 0 1 56.3891 5.50311)" fill="#FFFAFA"/>
</g>
<path d="M44.1695 33.4951C44.6599 34.0092 44.642 34.8224 44.1293 35.3114L35.7756 43.2798C35.263 43.7687 34.4499 43.7483 33.9595 43.2342C33.469 42.72 33.487 41.9069 33.9996 41.4179L41.4251 34.3349L34.3211 26.8874C33.8307 26.3732 33.8487 25.56 34.3613 25.071C34.8739 24.5821 35.6871 24.6025 36.1775 25.1166L44.1695 33.4951ZM18.7339 32.4806L43.2697 33.0961L43.2129 35.6648L18.6771 35.0492L18.7339 32.4806Z" fill="black"/>
<defs>
<filter id="filter0_d_2_10873" x="0.721259" y="0.364542" width="65.945" height="71.94" filterUnits="userSpaceOnUse" color-interpolation-filters="sRGB">
<feFlood flood-opacity="0" result="BackgroundImageFix"/>
<feColorMatrix in="SourceAlpha" type="matrix" values="0 0 0 0 0 0 0 0 0 0 0 0 0 0 0 0 0 0 127 0" result="hardAlpha"/>
<feMorphology radius="0.856428" operator="dilate" in="SourceAlpha" result="effect1_dropShadow_2_10873"/>
<feOffset dx="3.42571" dy="1.71286"/>
<feGaussianBlur stdDeviation="2.9975"/>
<feComposite in2="hardAlpha" operator="out"/>
<feColorMatrix type="matrix" values="0 0 0 0 0 0 0 0 0 0 0 0 0 0 0 0 0 0 0.25 0"/>
<feBlend mode="normal" in2="BackgroundImageFix" result="effect1_dropShadow_2_10873"/>
<feBlend mode="normal" in="SourceGraphic" in2="effect1_dropShadow_2_10873" result="shape"/>
</filter>
</defs>
</svg>
