<svg width="28" height="30" viewBox="0 0 28 30" fill="none" xmlns="http://www.w3.org/2000/svg">
<path d="M2.77845 25.8594H8.39649V29.0677H2.77845V25.8594ZM2.77845 25.8594V3.00988C2.77845 1.38399 10.0006 0.759766 14 0.759766C17.9486 0.759766 25.2215 1.38399 25.2215 3.00988V25.8594M2.77845 25.8594H25.2215M25.2215 25.8594H19.6035V29.0677H25.2215V25.8594ZM1.87115 5.47775H2.74216V11.241C2.2737 11.2333 1.82736 11.0403 1.50086 10.7043C1.17436 10.3683 0.994314 9.9166 1.00014 9.44812V6.36328C1.00011 6.13092 1.09141 5.90785 1.25435 5.74219C1.41729 5.57654 1.63882 5.48156 1.87115 5.47775ZM26.1288 5.47775H25.2578V11.241C25.7263 11.2333 26.1726 11.0403 26.4991 10.7043C26.8256 10.3683 27.0057 9.9166 26.9999 9.44812V6.36328C26.9999 6.13092 26.9086 5.90785 26.7456 5.74219C26.5827 5.57654 26.3612 5.48156 26.1288 5.47775ZM14 3.83008C17.9631 3.83008 20.9149 4.12768 22.8553 4.72287C22.9946 4.77154 23.1158 4.86152 23.2027 4.98083C23.2896 5.10014 23.3381 5.2431 23.3416 5.39065V17.73C23.3416 17.9225 23.2651 18.1071 23.129 18.2432C22.9929 18.3794 22.8083 18.4558 22.6158 18.4558H5.39149C5.19899 18.4558 5.01436 18.3794 4.87824 18.2432C4.74212 18.1071 4.66565 17.9225 4.66565 17.73V5.39065C4.6692 5.2431 4.71765 5.10014 4.80454 4.98083C4.89143 4.86152 5.01262 4.77154 5.15196 4.72287C7.08755 4.12768 10.0369 3.83008 14 3.83008ZM6.44397 20.3575C6.92523 20.3575 7.38678 20.5487 7.72709 20.889C8.06739 21.2293 8.25858 21.6909 8.25858 22.1722C8.25858 22.6534 8.06739 23.115 7.72709 23.4553C7.38678 23.7956 6.92523 23.9868 6.44397 23.9868C5.96973 23.9791 5.51785 23.7839 5.18727 23.4438C4.85669 23.1037 4.67434 22.6464 4.68017 22.1722C4.67434 21.6979 4.85669 21.2407 5.18727 20.9005C5.51785 20.5604 5.96973 20.3652 6.44397 20.3575ZM21.5923 20.3575C22.0736 20.3575 22.5351 20.5487 22.8755 20.889C23.2158 21.2293 23.4069 21.6909 23.4069 22.1722C23.4069 22.6534 23.2158 23.115 22.8755 23.4553C22.5351 23.7956 22.0736 23.9868 21.5923 23.9868C21.3557 23.9858 21.1215 23.938 20.9034 23.8461C20.6853 23.7543 20.4875 23.6201 20.3215 23.4514C20.1555 23.2827 20.0246 23.0828 19.9362 22.8633C19.8479 22.6437 19.8039 22.4088 19.8068 22.1722C19.8039 21.9355 19.8479 21.7006 19.9362 21.4811C20.0246 21.2615 20.1555 21.0616 20.3215 20.8929C20.4875 20.7242 20.6853 20.5901 20.9034 20.4982C21.1215 20.4063 21.3557 20.3585 21.5923 20.3575Z" stroke="#1C1C1C" stroke-width="0.725844" stroke-linecap="round" stroke-linejoin="round"/>
</svg>
